<svg width="50" height="50" viewBox="0 0 50 50" fill="none" xmlns="http://www.w3.org/2000/svg">
<rect width="50" height="50" rx="5" fill="white"/>
<path d="M42 23.5704C42 23.7034 42 23.8216 41.9843 23.9546C41.9843 23.9989 41.9843 24.0432 41.9687 24.0876C41.9687 24.1762 41.953 24.2501 41.953 24.3388C41.953 24.3831 41.9374 24.4422 41.9374 24.4865C41.9374 24.5604 41.9217 24.6343 41.906 24.7082C41.906 24.7673 41.8904 24.8116 41.8904 24.8707C41.8747 24.9446 41.8747 25.0037 41.8591 25.0776C41.8434 25.1367 41.8434 25.1811 41.8277 25.2402C41.8121 25.2993 41.7964 25.3732 41.7808 25.4323C41.7651 25.4914 41.7494 25.5357 41.7494 25.5948C41.7338 25.6539 41.7181 25.713 41.7025 25.7722C41.6868 25.8313 41.6711 25.8756 41.6555 25.9347C41.6398 25.9938 41.6242 26.0529 41.6085 26.112C41.5928 26.1711 41.5772 26.2155 41.5615 26.2746C41.5459 26.3337 41.5145 26.3928 41.4989 26.4371C41.4832 26.4962 41.4519 26.5406 41.4362 26.5997C41.4206 26.6588 41.3893 26.7031 41.3736 26.7622C41.3579 26.8213 41.3266 26.8657 41.311 26.9248C41.2953 26.9691 41.264 27.0282 41.2327 27.0725C41.2013 27.1317 41.1857 27.176 41.1544 27.2351C41.123 27.2794 41.1074 27.3238 41.0761 27.3681C41.0447 27.4272 41.0134 27.4715 40.9821 27.5306C40.9508 27.575 40.9351 27.6193 40.9038 27.6489C40.8725 27.708 40.8412 27.7523 40.8098 27.8114C40.7942 27.841 40.7629 27.8853 40.7472 27.9148C40.7159 27.9739 40.6689 28.0331 40.6219 28.0922C40.4966 28.2547 40.3714 28.4173 40.2304 28.5798V28.5946C40.1834 28.6537 40.1208 28.7128 40.0582 28.7719C40.0425 28.7867 40.0268 28.8162 39.9955 28.831C39.9485 28.8901 39.8859 28.9345 39.8389 28.9936C39.8076 29.0231 39.7919 29.0379 39.7606 29.0675C39.7136 29.1118 39.651 29.1709 39.5884 29.2152C39.557 29.2448 39.5414 29.2596 39.5101 29.2891C39.4474 29.3334 39.4004 29.3778 39.3378 29.4221C39.3065 29.4369 39.2752 29.4664 39.2595 29.4812C39.1969 29.5256 39.1342 29.5699 39.0873 29.6142C39.0559 29.629 39.0246 29.6585 38.9933 29.6733C38.9307 29.7177 38.868 29.762 38.8054 29.7915C38.774 29.8063 38.7427 29.8211 38.7114 29.8506C38.6488 29.895 38.5861 29.9245 38.5235 29.9689C38.4922 29.9836 38.4609 29.9984 38.4295 30.0132C38.3669 30.0575 38.2886 30.0871 38.226 30.1166C38.1946 30.1314 38.1633 30.1462 38.1477 30.161C38.0694 30.1905 38.0067 30.2349 37.9284 30.2644C37.8971 30.2792 37.8814 30.2792 37.8501 30.294C37.7718 30.3235 37.6935 30.3531 37.6152 30.3974C37.5996 30.4122 37.5682 30.4122 37.5526 30.427C37.4586 30.4565 37.3803 30.4861 37.2864 30.5156L37.255 30.5304C36.4877 30.7816 35.6577 30.9146 34.7651 30.9146C32.2438 30.9146 29.7069 29.7029 26.0425 26.5258C25.9329 26.4224 25.9172 26.2598 26.0268 26.1564L27.1544 25.0924C27.264 24.989 27.4206 24.989 27.5302 25.0924C30.4586 27.6193 32.7137 28.8015 34.7025 28.8015C34.9843 28.8015 35.2662 28.7867 35.5324 28.7424C35.83 28.698 36.1275 28.6241 36.4094 28.5355H36.4251C36.5503 28.4911 36.6913 28.4468 36.8166 28.3877L36.8479 28.3729C36.9732 28.3138 37.0984 28.2547 37.2081 28.1956L37.2394 28.1808C37.3647 28.1217 37.4743 28.0478 37.5839 27.9739C37.8188 27.8114 38.0224 27.6489 38.2103 27.442L38.226 27.4272C38.3199 27.3385 38.3982 27.2351 38.4922 27.1316L38.5235 27.0873C38.6018 26.9839 38.6801 26.8804 38.7584 26.777L38.7897 26.7327C38.868 26.6292 38.9307 26.511 38.9933 26.3928L39.009 26.3632C39.1342 26.1268 39.2595 25.8608 39.3378 25.5948L39.3535 25.5505C39.4004 25.4175 39.4318 25.2845 39.4631 25.1515C39.4631 25.1367 39.4788 25.1072 39.4788 25.0924C39.5101 24.9594 39.5414 24.8264 39.5571 24.6786C39.5571 24.6491 39.557 24.6343 39.5727 24.6048C39.5884 24.457 39.604 24.324 39.6197 24.1762C39.6197 24.1614 39.6197 24.1467 39.6197 24.1171C39.6353 23.9693 39.6353 23.8068 39.6353 23.6442C39.6353 20.9548 38.0694 18.9451 35.83 18.487C35.5168 18.4279 35.1723 18.3836 34.8277 18.3836C33.3557 18.3836 31.868 18.9156 29.8166 20.4081C28.736 21.1912 27.4832 22.2552 25.9799 23.6738L25.9642 23.6886L25.9485 23.7034C25.7919 23.8659 24.6331 25.0037 24.4765 25.1515C20.7025 28.7128 18.0716 30.3678 15.6286 30.8112C15.1745 30.885 14.7204 30.9294 14.2819 30.9294C13.8904 30.9294 13.4989 30.8998 13.123 30.8555C9.48993 30.3531 7 27.5159 7 23.6442C7 19.3293 10.038 16.2557 14.2192 16.2557C14.8926 16.2557 15.566 16.3443 16.2394 16.5364C16.5682 16.6251 16.8971 16.4478 16.9911 16.1375C17.4295 14.7336 18.3065 13.5662 19.5123 12.7239C19.5593 12.6944 19.5749 12.6353 19.5593 12.5909L19.1051 11.4679C19.0895 11.4383 19.0582 11.4088 19.0268 11.394C18.3378 11.2019 17.7897 10.6256 17.7114 9.9015C17.6174 8.95577 18.3535 8.09869 19.3557 8.01003C20.3579 7.92136 21.2662 8.61589 21.3602 9.56163C21.4072 9.96061 21.2975 10.3448 21.0783 10.6551C21.0626 10.6847 21.047 10.729 21.0626 10.7586L21.4072 11.6452C21.4385 11.7043 21.5011 11.7339 21.5638 11.7191C22.4251 11.4531 23.3647 11.3053 24.3826 11.3053C25.4318 11.3053 26.4183 11.4531 27.311 11.7339C27.3736 11.7486 27.4519 11.7191 27.4676 11.66L27.8277 10.7586C27.8434 10.729 27.8434 10.6847 27.8121 10.6551C27.6085 10.3448 27.4989 9.96061 27.5302 9.56163C27.6242 8.61589 28.5324 7.90659 29.5347 8.01003C30.5369 8.09869 31.2886 8.95577 31.179 9.9015C31.1007 10.6256 30.5682 11.2019 29.8635 11.394C29.8322 11.4088 29.8009 11.4235 29.7852 11.4679L29.3311 12.6205C29.3154 12.6648 29.3311 12.7239 29.3781 12.7535C30.0984 13.2411 30.6935 13.847 31.1477 14.5415C31.3356 14.8371 31.226 15.2361 30.8971 15.369C30.5996 15.502 30.2864 15.6498 29.9732 15.8271C29.7069 15.9749 29.3311 15.901 29.1588 15.6498C28.2192 14.3642 26.4966 13.5367 24.3669 13.5367C21.2975 13.5367 19.1678 15.2508 18.9329 17.7482C18.9016 18.886 19.2774 19.9795 19.4653 20.4672C19.4966 20.5558 19.481 20.674 19.34 20.5706C18.8546 20.2455 17.7584 19.5214 16.9754 19.0633L16.9284 19.0338C16.8501 18.9894 16.7718 18.9599 16.6935 18.9303C15.7696 18.5314 14.9553 18.3688 14.1253 18.3688H14.1096C12.5593 18.3688 11.2438 19.0633 10.3982 20.2159V20.2307C10.3512 20.2898 10.3042 20.3489 10.2729 20.4228L10.2573 20.4376C10.2103 20.4967 10.179 20.5558 10.132 20.6297L10.1163 20.6445C10.085 20.7036 10.038 20.7775 10.0067 20.8366L9.99105 20.8661C9.95973 20.9253 9.92841 20.9991 9.89709 21.0582L9.88143 21.0878C9.85011 21.1469 9.81879 21.2208 9.78747 21.2799L9.77181 21.3242C9.74049 21.3833 9.72483 21.4572 9.69351 21.5163C9.69351 21.5311 9.67785 21.5459 9.67785 21.5607C9.66219 21.6198 9.63087 21.6937 9.61521 21.7528C9.61521 21.7823 9.59955 21.7971 9.59955 21.8267C9.58389 21.8858 9.56823 21.9449 9.55257 22.004C9.55257 22.0335 9.53691 22.0483 9.53691 22.0779C9.52125 22.137 9.50559 22.1961 9.48993 22.27C9.48993 22.2995 9.47427 22.3291 9.47427 22.3439C9.45861 22.403 9.44295 22.4621 9.44295 22.5212C9.44295 22.5507 9.42729 22.5803 9.42729 22.6098C9.41163 22.669 9.41163 22.7281 9.39597 22.7872C9.39597 22.8167 9.39597 22.8611 9.38031 22.8906C9.38031 22.9497 9.36465 23.0088 9.36465 23.0532C9.36465 23.0975 9.36465 23.1418 9.34899 23.1714C9.34899 23.2157 9.34899 23.2748 9.33333 23.3191C9.33333 23.4078 9.33333 23.4965 9.33333 23.5704V23.5999C9.33333 26.6736 11.3691 28.7571 14.2975 28.7571C16.6152 28.7571 19.3087 27.1908 23.0045 23.659C23.2237 23.4374 24.226 22.4473 24.4452 22.2552C28.8613 17.9403 31.774 16.2261 34.7494 16.2261C39.0246 16.1818 42 19.2554 42 23.5704ZM33.1521 32.88C33.1521 32.9538 33.1365 33.0277 33.0738 33.0868L24.8054 40.8892C24.6488 41.0369 24.3982 41.0369 24.2416 40.8892L16.0515 33.1459C16.0515 33.1459 16.0358 33.1312 16.0201 33.1312H16.0045C15.9888 33.1164 15.9732 33.1164 15.9732 33.1016C15.9418 33.0573 15.9262 32.9982 15.9262 32.9391V32.9243C15.9262 32.9095 15.9262 32.8947 15.9262 32.88C15.9262 32.88 15.9262 32.88 15.9262 32.8652C15.9418 32.8061 15.9732 32.747 16.0358 32.7026C16.255 32.5401 16.5526 32.3332 16.8971 32.1263C17.3826 31.816 17.9933 31.4761 18.7136 31.151C20.1544 30.5156 22.0492 29.9393 24.3043 29.895C24.3982 29.895 24.4922 29.895 24.6018 29.895C26.34 29.895 27.8747 30.2053 29.1432 30.6338C30.4273 31.0624 31.4609 31.5943 32.1969 32.0524C32.5414 32.2593 32.8233 32.4514 33.0425 32.614C33.1208 32.6731 33.1678 32.7765 33.1521 32.88ZM20.5928 32.5549C20.0917 32.7322 19.6376 32.9243 19.2304 33.1164C19.1521 33.1459 19.1365 33.2494 19.1991 33.3085L20.7025 34.7271C20.7494 34.7714 20.8121 34.7714 20.8591 34.7419C21.047 34.6237 21.2662 34.5054 21.5481 34.3725C22.2528 34.0474 23.255 33.737 24.4922 33.737C24.6018 33.737 24.7114 33.737 24.8054 33.737C25.7919 33.7814 26.6063 34.003 27.217 34.269C27.6085 34.4316 27.906 34.6089 28.1409 34.7567C28.1879 34.7862 28.2506 34.7862 28.2975 34.7419L29.8792 33.2494C29.9418 33.1903 29.9262 33.1016 29.8479 33.0573C29.7226 32.9982 29.5817 32.9391 29.4407 32.88C28.1723 32.3332 26.528 31.8603 24.5705 31.8603C24.4922 31.8603 24.4139 31.8603 24.3199 31.8603C22.9105 31.9047 21.6577 32.1854 20.5928 32.5549ZM24.8054 38.0667L26.5906 36.3821C26.6532 36.323 26.6376 36.2344 26.5593 36.19C26.5436 36.19 26.5436 36.1753 26.528 36.1753C26.1051 35.9684 25.4944 35.7763 24.7114 35.7467C24.6331 35.7467 24.5548 35.7467 24.4922 35.7467C23.6309 35.7467 22.9575 35.9536 22.472 36.1753C22.3937 36.2048 22.3781 36.3083 22.4407 36.3674L24.2573 38.0815C24.3982 38.2145 24.6488 38.2145 24.8054 38.0667Z" fill="url(#paint0_linear_2044_4)"/>
<defs>
<linearGradient id="paint0_linear_2044_4" x1="12.072" y1="32.1722" x2="34.5778" y2="12.1594" gradientUnits="userSpaceOnUse">
<stop stop-color="#459CD6"/>
<stop offset="0.2019" stop-color="#4D91CE"/>
<stop offset="0.5539" stop-color="#6575BB"/>
<stop offset="1" stop-color="#89489C"/>
</linearGradient>
</defs>
</svg>
