<svg width="50" height="50" viewBox="0 0 50 50" fill="none" xmlns="http://www.w3.org/2000/svg">
<rect width="50" height="50" rx="5" fill="white"/>
<path d="M46 23.345C46 23.5102 46 23.6571 45.9808 23.8223C45.9808 23.8774 45.9808 23.9325 45.9615 23.9876C45.9615 24.0977 45.9423 24.1895 45.9423 24.2997C45.9423 24.3548 45.923 24.4282 45.923 24.4833C45.923 24.5751 45.9038 24.6669 45.8846 24.7587C45.8846 24.8321 45.8653 24.8872 45.8653 24.9606C45.8461 25.0524 45.8461 25.1259 45.8268 25.2177C45.8076 25.2911 45.8076 25.3462 45.7884 25.4196C45.7691 25.4931 45.7499 25.5849 45.7306 25.6583C45.7114 25.7317 45.6922 25.7868 45.6922 25.8602C45.6729 25.9337 45.6537 26.0071 45.6345 26.0806C45.6152 26.154 45.596 26.2091 45.5767 26.2825C45.5575 26.356 45.5383 26.4294 45.519 26.5028C45.4998 26.5763 45.4805 26.6313 45.4613 26.7048C45.4421 26.7782 45.4036 26.8517 45.3843 26.9067C45.3651 26.9802 45.3266 27.0353 45.3074 27.1087C45.2881 27.1821 45.2497 27.2372 45.2304 27.3106C45.2112 27.3841 45.1727 27.4392 45.1535 27.5126C45.1342 27.5677 45.0957 27.6411 45.0573 27.6962C45.0188 27.7696 44.9996 27.8247 44.9611 27.8981C44.9226 27.9532 44.9034 28.0083 44.8649 28.0634C44.8264 28.1368 44.7879 28.1919 44.7494 28.2653C44.711 28.3204 44.6917 28.3755 44.6532 28.4122C44.6148 28.4856 44.5763 28.5407 44.5378 28.6142C44.5186 28.6509 44.4801 28.706 44.4608 28.7427C44.4224 28.8161 44.3647 28.8896 44.3069 28.963C44.153 29.1649 43.9991 29.3669 43.826 29.5689V29.5872C43.7682 29.6607 43.6913 29.7341 43.6143 29.8075C43.5951 29.8259 43.5758 29.8626 43.5374 29.881C43.4796 29.9544 43.4027 30.0095 43.345 30.0829C43.3065 30.1196 43.2873 30.138 43.2488 30.1747C43.1911 30.2298 43.1141 30.3032 43.0371 30.3583C42.9987 30.395 42.9794 30.4134 42.9409 30.4501C42.864 30.5052 42.8063 30.5603 42.7293 30.6153C42.6908 30.6337 42.6523 30.6704 42.6331 30.6888C42.5562 30.7439 42.4792 30.7989 42.4215 30.854C42.383 30.8724 42.3445 30.9091 42.306 30.9275C42.2291 30.9825 42.1521 31.0376 42.0752 31.0743C42.0367 31.0927 41.9982 31.1111 41.9597 31.1478C41.8828 31.2029 41.8058 31.2396 41.7289 31.2946C41.6904 31.313 41.6519 31.3314 41.6134 31.3497C41.5365 31.4048 41.4403 31.4415 41.3633 31.4782C41.3248 31.4966 41.2864 31.515 41.2671 31.5333C41.1709 31.57 41.094 31.6251 40.9978 31.6618C40.9593 31.6802 40.94 31.6802 40.9016 31.6986C40.8054 31.7353 40.7092 31.772 40.613 31.8271C40.5937 31.8454 40.5553 31.8454 40.536 31.8638C40.4206 31.9005 40.3244 31.9372 40.209 31.974L40.1705 31.9923C39.2277 32.3044 38.2081 32.4697 37.1114 32.4697C34.0139 32.4697 30.8971 30.9642 26.3951 27.0169C26.2604 26.8884 26.2412 26.6864 26.3758 26.5579L27.7611 25.236C27.8958 25.1075 28.0881 25.1075 28.2228 25.236C31.8206 28.3755 34.5911 29.8443 37.0345 29.8443C37.3808 29.8443 37.7271 29.8259 38.0541 29.7708C38.4197 29.7157 38.7852 29.6239 39.1315 29.5138H39.1508C39.3047 29.4587 39.4779 29.4036 39.6318 29.3302L39.6702 29.3118C39.8242 29.2384 39.9781 29.165 40.1128 29.0915L40.1512 29.0732C40.3051 28.9997 40.4398 28.9079 40.5745 28.8161C40.8631 28.6142 41.1132 28.4122 41.3441 28.1552L41.3633 28.1368C41.4788 28.0267 41.5749 27.8981 41.6904 27.7696L41.7289 27.7145C41.8251 27.586 41.9213 27.4575 42.0175 27.329L42.0559 27.2739C42.1521 27.1454 42.2291 26.9985 42.306 26.8517L42.3253 26.8149C42.4792 26.5212 42.6331 26.1907 42.7293 25.8602L42.7485 25.8052C42.8063 25.6399 42.8447 25.4747 42.8832 25.3095C42.8832 25.2911 42.9025 25.2544 42.9025 25.236C42.9409 25.0708 42.9794 24.9055 42.9987 24.722C42.9987 24.6852 42.9987 24.6669 43.0179 24.6302C43.0371 24.4466 43.0564 24.2813 43.0756 24.0977C43.0756 24.0794 43.0756 24.061 43.0756 24.0243C43.0949 23.8407 43.0949 23.6387 43.0949 23.4368C43.0949 20.0954 41.1709 17.5985 38.4197 17.0293C38.0349 16.9559 37.6116 16.9008 37.1884 16.9008C35.3799 16.9008 33.5521 17.5618 31.0318 19.4161C29.7043 20.3891 28.1651 21.711 26.3181 23.4735L26.2989 23.4919L26.2796 23.5102C26.0872 23.7122 24.6635 25.1259 24.4711 25.3095C19.8345 29.7341 16.6022 31.7904 13.6009 32.3411C13.043 32.4329 12.485 32.488 11.9463 32.488C11.4653 32.488 10.9843 32.4513 10.5226 32.3962C6.05906 31.772 3 28.247 3 23.4368C3 18.0758 6.73244 14.2571 11.8693 14.2571C12.6966 14.2571 13.5239 14.3672 14.3512 14.6059C14.7553 14.716 15.1593 14.4957 15.2747 14.1102C15.8134 12.366 16.8908 10.9156 18.3723 9.86914C18.43 9.83242 18.4492 9.75898 18.43 9.7039L17.872 8.30858C17.8528 8.27186 17.8143 8.23514 17.7758 8.21678C16.9293 7.97811 16.2559 7.26209 16.1597 6.36247C16.0443 5.18747 16.9485 4.12262 18.1799 4.01246C19.4112 3.9023 20.5271 4.7652 20.6425 5.9402C20.7002 6.43591 20.5655 6.91326 20.2962 7.29881C20.277 7.33553 20.2577 7.3906 20.277 7.42732L20.7002 8.52889C20.7387 8.60233 20.8157 8.63905 20.8926 8.62069C21.9508 8.29022 23.1051 8.10662 24.3557 8.10662C25.6447 8.10662 26.8568 8.29022 27.9535 8.63905C28.0304 8.65741 28.1266 8.62069 28.1459 8.54725L28.5884 7.42732C28.6076 7.3906 28.6076 7.33553 28.5691 7.29881C28.319 6.91326 28.1843 6.43591 28.2228 5.9402C28.3383 4.7652 29.4541 3.88394 30.6855 4.01246C31.9168 4.12262 32.8403 5.18747 32.7056 6.36247C32.6094 7.26209 31.9553 7.97811 31.0895 8.21678C31.051 8.23514 31.0125 8.2535 30.9933 8.30858L30.4353 9.74062C30.4161 9.7957 30.4353 9.86913 30.4931 9.90585C31.3781 10.5117 32.1092 11.2645 32.6671 12.1274C32.898 12.4945 32.7633 12.9902 32.3593 13.1555C31.9937 13.3207 31.6089 13.5043 31.2242 13.7246C30.8971 13.9082 30.4353 13.8164 30.2237 13.5043C29.0694 11.907 26.953 10.8789 24.3365 10.8789C20.5655 10.8789 17.949 13.0086 17.6604 16.1114C17.6219 17.525 18.0837 18.8836 18.3145 19.4895C18.353 19.5997 18.3338 19.7465 18.1606 19.618C17.5642 19.2141 16.2174 18.3145 15.2555 17.7454L15.1978 17.7086C15.1016 17.6536 15.0054 17.6168 14.9092 17.5801C13.774 17.0844 12.7736 16.8825 11.7539 16.8825H11.7347C9.82998 16.8825 8.21387 17.7454 7.17494 19.1774V19.1958C7.11723 19.2692 7.05951 19.3426 7.02103 19.4344L7.00179 19.4528C6.94407 19.5262 6.90559 19.5997 6.84788 19.6915L6.82863 19.7098C6.79016 19.7833 6.73244 19.8751 6.69396 19.9485L6.67472 19.9852C6.63624 20.0586 6.59776 20.1504 6.55928 20.2239L6.54004 20.2606C6.50157 20.334 6.46309 20.4258 6.42461 20.4993L6.40537 20.5544C6.36689 20.6278 6.34765 20.7196 6.30917 20.793C6.30917 20.8114 6.28993 20.8297 6.28993 20.8481C6.27069 20.9215 6.23221 21.0133 6.21297 21.0868C6.21297 21.1235 6.19374 21.1419 6.19374 21.1786C6.1745 21.252 6.15526 21.3255 6.13602 21.3989C6.13602 21.4356 6.11678 21.454 6.11678 21.4907C6.09754 21.5641 6.0783 21.6376 6.05906 21.7294C6.05906 21.7661 6.03982 21.8028 6.03982 21.8212C6.02058 21.8946 6.00134 21.968 6.00134 22.0415C6.00134 22.0782 5.9821 22.1149 5.9821 22.1516C5.96286 22.2251 5.96286 22.2985 5.94362 22.3719C5.94362 22.4087 5.94362 22.4637 5.92438 22.5005C5.92438 22.5739 5.90515 22.6473 5.90515 22.7024C5.90515 22.7575 5.90515 22.8126 5.88591 22.8493C5.88591 22.9044 5.88591 22.9778 5.86667 23.0329C5.86667 23.143 5.86667 23.2532 5.86667 23.345V23.3817C5.86667 27.2005 8.36778 29.7892 11.9655 29.7892C14.813 29.7892 18.1221 27.8431 22.6626 23.4552C22.932 23.1798 24.1633 21.9497 24.4327 21.711C29.8582 16.35 33.4367 14.2203 37.0922 14.2203C42.3445 14.1653 46 17.984 46 23.345ZM35.1298 34.9115C35.1298 35.0033 35.1105 35.0951 35.0336 35.1685L24.8752 44.8623C24.6828 45.0459 24.3749 45.0459 24.1825 44.8623L14.1204 35.2419C14.1204 35.2419 14.1011 35.2236 14.0819 35.2236H14.0626C14.0434 35.2052 14.0242 35.2052 14.0242 35.1869C13.9857 35.1318 13.9664 35.0583 13.9664 34.9849V34.9665C13.9664 34.9482 13.9664 34.9298 13.9664 34.9115C13.9664 34.9115 13.9664 34.9115 13.9664 34.8931C13.9857 34.8197 14.0242 34.7462 14.1011 34.6912C14.3705 34.4892 14.736 34.2322 15.1593 33.9751C15.7557 33.5896 16.506 33.1673 17.3911 32.7634C19.1611 31.974 21.489 31.2579 24.2595 31.2029C24.3749 31.2029 24.4904 31.2029 24.6251 31.2029C26.7606 31.2029 28.6461 31.5884 30.2045 32.1208C31.7821 32.6533 33.0519 33.3142 33.9562 33.8833C34.3794 34.1404 34.7257 34.379 34.9951 34.581C35.0913 34.6544 35.149 34.783 35.1298 34.9115ZM19.6998 34.5076C19.0841 34.7279 18.5262 34.9665 18.0259 35.2052C17.9298 35.2419 17.9105 35.3705 17.9875 35.4439L19.8345 37.2064C19.8922 37.2615 19.9691 37.2615 20.0268 37.2248C20.2577 37.0779 20.5271 36.931 20.8734 36.7658C21.7391 36.3619 22.9705 35.9763 24.4904 35.9763C24.6251 35.9763 24.7597 35.9763 24.8752 35.9763C26.0872 36.0314 27.0877 36.3068 27.838 36.6373C28.319 36.8392 28.6846 37.0595 28.9732 37.2431C29.0309 37.2798 29.1078 37.2798 29.1655 37.2248L31.1087 35.3705C31.1857 35.297 31.1664 35.1869 31.0702 35.1318C30.9163 35.0583 30.7432 34.9849 30.57 34.9115C29.0116 34.2322 26.9915 33.6447 24.5866 33.6447C24.4904 33.6447 24.3942 33.6447 24.2787 33.6447C22.5472 33.6997 21.0081 34.0486 19.6998 34.5076ZM24.8752 41.3556L27.0685 39.2627C27.1454 39.1892 27.1262 39.0791 27.03 39.024C27.0107 39.024 27.0107 39.0056 26.9915 39.0056C26.472 38.7486 25.7217 38.5099 24.7597 38.4732C24.6635 38.4732 24.5673 38.4732 24.4904 38.4732C23.4322 38.4732 22.6049 38.7302 22.0085 39.0056C21.9123 39.0424 21.8931 39.1709 21.97 39.2443L24.2018 41.374C24.3749 41.5392 24.6828 41.5392 24.8752 41.3556Z" fill="url(#paint0_linear_2044_4)"/>
<defs>
<linearGradient id="paint0_linear_2044_4" x1="9.23134" y1="34.0321" x2="37.1547" y2="9.47867" gradientUnits="userSpaceOnUse">
<stop stop-color="#459CD6"/>
<stop offset="0.2019" stop-color="#4D91CE"/>
<stop offset="0.5539" stop-color="#6575BB"/>
<stop offset="1" stop-color="#89489C"/>
</linearGradient>
</defs>
</svg>
