<svg width="24" height="24" viewBox="0 0 24 24" fill="none" xmlns="http://www.w3.org/2000/svg">
  <path d="M2.7678 18.719C1.96584 18.719 1.18235 18.5144 0.472291 18.1156C0.106952 17.9275 -0.0345496 17.4568 0.183703 17.1027C0.908855 15.9439 1.17071 14.5275 0.838698 13.1954C0.494567 11.8144 -0.00336214 10.6513 0.000202134 9.18939C0.0125583 4.06033 4.28167 -0.0977534 9.4055 0.00174936C14.3545 0.10143 18.4332 4.26165 18.4332 9.21196C18.4333 15.6771 11.6577 20.2162 5.67608 17.7197C4.8516 18.3668 3.81529 18.719 2.7678 18.719ZM1.79333 17.1405C2.92012 17.4905 4.1874 17.2109 5.05631 16.3709C5.2704 16.1638 5.59065 16.1117 5.85928 16.2402C10.9804 18.6887 17.0075 14.8509 17.0074 9.21196C17.0074 5.00409 13.5843 1.51187 9.37681 1.42716C5.04074 1.34103 1.43637 4.85279 1.42591 9.19283C1.42253 10.5814 1.9643 11.6912 2.26037 13.0065C2.5723 14.3928 2.40799 15.8586 1.79333 17.1405Z" fill="white" stroke="#B9644C" stroke-width="0.5"/>
  <path d="M21.2307 23.9998C20.1832 23.9998 19.1469 23.6475 18.3225 23.0004C15.1414 24.3281 11.3574 23.7235 8.74916 21.471C8.45119 21.2136 8.41828 20.7635 8.67556 20.4655C8.9329 20.1676 9.38301 20.1345 9.68098 20.3919C11.9943 22.3897 15.3822 22.8391 18.1392 21.521C18.4078 21.3925 18.728 21.4446 18.9422 21.6517C19.8111 22.4916 21.0784 22.7714 22.2052 22.4213C21.4801 20.9089 21.3797 19.1762 21.9416 17.5722C21.9466 17.5577 21.9521 17.5435 21.9581 17.5294C22.3684 16.562 22.5752 15.5338 22.5727 14.4736C22.5682 12.6042 21.9463 10.875 20.7743 9.47277C20.5218 9.17064 20.562 8.72112 20.8641 8.46865C21.1661 8.21613 21.6157 8.2564 21.8682 8.55847C23.2366 10.1957 23.9932 12.2951 23.9984 14.4701C24.0014 15.7159 23.7597 16.9249 23.28 18.064C22.7761 19.5226 23.0079 21.0843 23.8148 22.3833C24.0332 22.7375 23.8916 23.2082 23.5261 23.3965C22.8162 23.795 22.0325 23.9997 21.2307 23.9998Z" fill="white" stroke="#B9644C" stroke-width="0.5"/>
  <path d="M9.21419 10.3749C9.83715 10.3749 10.3422 9.87013 10.3422 9.2475C10.3422 8.62486 9.83715 8.12012 9.21419 8.12012C8.59122 8.12012 8.08621 8.62486 8.08621 9.2475C8.08621 9.87013 8.59122 10.3749 9.21419 10.3749Z" fill="white"/>
  <path d="M5.05989 10.3749C5.68285 10.3749 6.18786 9.87013 6.18786 9.2475C6.18786 8.62486 5.68285 8.12012 5.05989 8.12012C4.43693 8.12012 3.93192 8.62486 3.93192 9.2475C3.93192 9.87013 4.43693 10.3749 5.05989 10.3749Z" fill="white"/>
  <path d="M13.3685 10.3749C13.9914 10.3749 14.4965 9.87013 14.4965 9.2475C14.4965 8.62486 13.9914 8.12012 13.3685 8.12012C12.7455 8.12012 12.2405 8.62486 12.2405 9.2475C12.2405 9.87013 12.7455 10.3749 13.3685 10.3749Z" fill="white"/>
</svg>
