<svg width="24" height="24" viewBox="0 0 24 24" fill="none" xmlns="http://www.w3.org/2000/svg">
<g clip-path="url(#clip0_5_641)">
<path d="M12.0009 23.6571C10.0254 23.6621 8.08134 23.1628 6.35278 22.2064C4.62423 21.25 3.1684 19.8682 2.12318 18.1919C2.07591 18.115 2.06092 18.0225 2.08147 17.9345C2.10201 17.8466 2.15642 17.7703 2.23289 17.7222C2.30944 17.6746 2.40165 17.6591 2.48955 17.679C2.57746 17.6989 2.654 17.7526 2.70261 17.8285C4.10634 20.0698 6.27238 21.7286 8.80205 22.4997C11.3317 23.2707 14.0548 23.1021 16.47 22.0249C18.8852 20.9476 20.8301 19.0342 21.9466 16.6369C23.0631 14.2396 23.2761 11.5196 22.5464 8.97772C21.8167 6.4358 20.1935 4.24298 17.9754 2.80287C15.7573 1.36277 13.0937 0.772289 10.4749 1.14013C7.85599 1.50796 5.45811 2.80936 3.72258 4.80478C1.98705 6.8002 1.03067 9.35535 1.02946 11.9999C1.02946 12.0909 0.993342 12.1781 0.929044 12.2424C0.864746 12.3067 0.777539 12.3428 0.686607 12.3428C0.595676 12.3428 0.508469 12.3067 0.444171 12.2424C0.379872 12.1781 0.34375 12.0909 0.34375 11.9999C0.34375 9.69436 1.02743 7.44057 2.30833 5.52356C3.58924 3.60655 5.40983 2.11243 7.5399 1.23013C9.66996 0.347824 12.0138 0.116974 14.2751 0.566767C16.5364 1.01656 18.6135 2.1268 20.2437 3.75708C21.874 5.38736 22.9843 7.46446 23.434 9.72573C23.8838 11.987 23.653 14.3309 22.7707 16.4609C21.8884 18.591 20.3943 20.4116 18.4773 21.6925C16.5602 22.9734 14.3065 23.6571 12.0009 23.6571Z" fill="white" stroke="white" stroke-width="0.2"/>
<path d="M2.40145 21.2572C2.31052 21.2572 2.22331 21.2211 2.15901 21.1568C2.09472 21.0925 2.05859 21.0053 2.05859 20.9143V18.0103C2.05859 17.9194 2.09472 17.8322 2.15901 17.7679C2.22331 17.7036 2.31052 17.6675 2.40145 17.6675H5.28831C5.37924 17.6675 5.46645 17.7036 5.53075 17.7679C5.59504 17.8322 5.63117 17.9194 5.63117 18.0103C5.63117 18.1013 5.59504 18.1885 5.53075 18.2528C5.46645 18.3171 5.37924 18.3532 5.28831 18.3532H2.74431V20.9143C2.74431 21.0053 2.70819 21.0925 2.64389 21.1568C2.57959 21.2211 2.49238 21.2572 2.40145 21.2572Z" fill="white" stroke="white" stroke-width="0.2"/>
<path d="M12.0009 18.4559C10.724 18.4559 9.47585 18.0773 8.41416 17.3679C7.35248 16.6585 6.525 15.6502 6.03636 14.4706C5.54772 13.2909 5.41987 11.9928 5.66898 10.7404C5.91808 9.4881 6.53296 8.33775 7.43584 7.43487C8.33873 6.53198 9.48908 5.9171 10.7414 5.668C11.9938 5.41889 13.2918 5.54674 14.4715 6.03538C15.6512 6.52402 16.6595 7.3515 17.3689 8.41319C18.0783 9.47487 18.4569 10.7231 18.4569 11.9999C18.4542 13.7114 17.7731 15.3519 16.563 16.562C15.3529 17.7722 13.7123 18.4532 12.0009 18.4559ZM12.0009 6.22966C10.8597 6.22966 9.74405 6.56808 8.79513 7.20213C7.84621 7.83618 7.10662 8.73737 6.66988 9.79176C6.23314 10.8461 6.11887 12.0064 6.34151 13.1257C6.56416 14.245 7.11373 15.2732 7.92072 16.0802C8.72771 16.8871 9.75587 17.4367 10.8752 17.6594C11.9945 17.882 13.1547 17.7677 14.2091 17.331C15.2635 16.8943 16.1647 16.1547 16.7987 15.2057C17.4328 14.2568 17.7712 13.1412 17.7712 11.9999C17.7694 10.4701 17.1609 9.00349 16.0791 7.92174C14.9974 6.84 13.5307 6.23148 12.0009 6.22966Z" fill="white" stroke="white" stroke-width="0.2"/>
<path d="M11.9995 15.4491C11.4969 15.4482 11.0152 15.2481 10.6598 14.8927C10.3045 14.5374 10.1044 14.0556 10.1035 13.5531C10.1035 13.4621 10.1396 13.3749 10.2039 13.3106C10.2682 13.2463 10.3554 13.2102 10.4464 13.2102C10.5373 13.2102 10.6245 13.2463 10.6888 13.3106C10.7531 13.3749 10.7892 13.4621 10.7892 13.5531C10.7892 13.8741 10.9167 14.1819 11.1437 14.4089C11.3707 14.6358 11.6785 14.7634 11.9995 14.7634C12.3205 14.7634 12.6283 14.6358 12.8553 14.4089C13.0823 14.1819 13.2098 13.8741 13.2098 13.5531C13.2098 13.1931 13.0727 12.6754 11.9035 12.3291C10.4155 11.8902 10.1035 11.0639 10.1035 10.4468C10.1035 9.94393 10.3033 9.46168 10.6588 9.10611C11.0144 8.75054 11.4967 8.55078 11.9995 8.55078C12.5024 8.55078 12.9846 8.75054 13.3402 9.10611C13.6958 9.46168 13.8955 9.94393 13.8955 10.4468C13.8955 10.5377 13.8594 10.6249 13.7951 10.6892C13.7308 10.7535 13.6436 10.7896 13.5527 10.7896C13.4617 10.7896 13.3745 10.7535 13.3102 10.6892C13.2459 10.6249 13.2098 10.5377 13.2098 10.4468C13.2098 10.1258 13.0823 9.81795 12.8553 9.59098C12.6283 9.36401 12.3205 9.2365 11.9995 9.2365C11.6785 9.2365 11.3707 9.36401 11.1437 9.59098C10.9167 9.81795 10.7892 10.1258 10.7892 10.4468C10.7892 10.6559 10.7892 11.2834 12.0955 11.6708C13.2887 12.0136 13.8955 12.6582 13.8955 13.5531C13.8946 14.0556 13.6946 14.5374 13.3392 14.8927C12.9838 15.2481 12.5021 15.4482 11.9995 15.4491Z" fill="white" stroke="white" stroke-width="0.2"/>
<path d="M11.9991 9.2366C11.9082 9.2366 11.821 9.20048 11.7567 9.13618C11.6924 9.07188 11.6562 8.98467 11.6562 8.89374V8.2286C11.6562 8.13767 11.6924 8.05046 11.7567 7.98616C11.821 7.92186 11.9082 7.88574 11.9991 7.88574C12.09 7.88574 12.1772 7.92186 12.2415 7.98616C12.3058 8.05046 12.342 8.13767 12.342 8.2286V8.88689C12.3429 8.93248 12.3347 8.97781 12.3179 9.0202C12.301 9.06259 12.2759 9.1012 12.244 9.13377C12.2121 9.16633 12.174 9.1922 12.1319 9.20986C12.0899 9.22752 12.0447 9.23661 11.9991 9.2366Z" fill="white" stroke="white" stroke-width="0.2"/>
<path d="M11.9991 16.1145C11.9082 16.1145 11.821 16.0784 11.7567 16.0141C11.6924 15.9498 11.6562 15.8626 11.6562 15.7717V15.1065C11.6562 15.0156 11.6924 14.9284 11.7567 14.8641C11.821 14.7998 11.9082 14.7637 11.9991 14.7637C12.09 14.7637 12.1772 14.7998 12.2415 14.8641C12.3058 14.9284 12.342 15.0156 12.342 15.1065V15.7717C12.342 15.8626 12.3058 15.9498 12.2415 16.0141C12.1772 16.0784 12.09 16.1145 11.9991 16.1145Z" fill="white" stroke="white" stroke-width="0.2"/>
</g>
<defs>
<clipPath id="clip0_5_641">
<rect width="24" height="24" fill="white"/>
</clipPath>
</defs>
</svg>
