<svg width="24" height="24" viewBox="0 0 24 24" fill="none" xmlns="http://www.w3.org/2000/svg">
<path d="M11.8185 23.5041C11.9377 23.5333 12.0623 23.5333 12.1815 23.5041C14.9161 22.824 17.3442 21.2477 19.0784 19.0266C20.8127 16.8056 21.7532 14.0678 21.75 11.2498V5.24984C21.75 5.05093 21.671 4.86016 21.5303 4.71951C21.3897 4.57886 21.1989 4.49984 21 4.49984C17.8462 4.37034 14.8424 3.11835 12.5303 0.96959C12.3896 0.828987 12.1989 0.75 12 0.75C11.8011 0.75 11.6104 0.828987 11.4698 0.96959C7.995 4.44434 3.048 4.49984 3 4.49984C2.80109 4.49984 2.61032 4.57886 2.46967 4.71951C2.32902 4.86016 2.25 5.05093 2.25 5.24984V11.2498C2.24678 14.0678 3.18731 16.8056 4.92157 19.0266C6.65582 21.2477 9.0839 22.824 11.8185 23.5041ZM3.75 5.95934C6.78961 5.7018 9.67335 4.50321 12 2.53034C14.3266 4.50321 17.2104 5.7018 20.25 5.95934V11.2498C20.2526 13.7008 19.4451 16.084 17.9531 18.0285C16.4611 19.9731 14.3681 21.3699 12 22.0018C9.63185 21.3699 7.53895 19.9731 6.04691 18.0285C4.55487 16.084 3.74735 13.7008 3.75 11.2498V5.95934Z" fill="white" stroke="#B9644C" stroke-width="0.5"/>
<path d="M10.7183 14.7803C10.8602 14.9186 11.0505 14.996 11.2486 14.996C11.4467 14.996 11.637 14.9186 11.7788 14.7803L16.2788 10.2803C16.4155 10.1389 16.4911 9.94941 16.4894 9.75276C16.4876 9.55611 16.4088 9.368 16.2697 9.22895C16.1307 9.08989 15.9425 9.01101 15.7459 9.00931C15.5492 9.0076 15.3598 9.08319 15.2183 9.21981L11.2486 13.1896L9.52885 11.4698C9.38739 11.3332 9.19794 11.2576 9.0013 11.2593C8.80465 11.261 8.61654 11.3399 8.47748 11.4789C8.33843 11.618 8.25955 11.8061 8.25784 12.0028C8.25613 12.1994 8.33173 12.3889 8.46835 12.5303L10.7183 14.7803Z" fill="white" stroke="#B9644C" stroke-width="0.5"/>
</svg>
