<svg width="64" height="15" viewBox="0 0 64 15" fill="none" xmlns="http://www.w3.org/2000/svg">
  <path fill-rule="evenodd" clip-rule="evenodd" d="M42.3082 0C40.9988 0 39.9373 1.02562 39.9373 2.29078V12.7092C39.9373 13.9744 40.9988 15 42.3082 15H61.6291C62.9385 15 64 13.9744 64 12.7092V2.29078C64 1.02562 62.9385 0 61.6291 0H42.3082ZM45.6925 10.4751V7.83426H47.412C48.983 7.83426 49.8182 6.98324 49.8182 5.69354C49.8182 4.40385 48.983 3.63181 47.412 3.63181H44.5848V10.4751H45.6925ZM45.6925 4.64952H47.1577C48.1746 4.64952 48.6742 5.05308 48.6742 5.72865C48.6742 6.40419 48.1928 6.80778 47.2031 6.80778H45.6925V4.64952ZM51.7714 10.6154C52.6158 10.6154 53.1697 10.2557 53.424 9.64158C53.4966 10.3259 53.9235 10.6769 54.8496 10.44L54.8588 9.71177C54.4864 9.74687 54.4137 9.61526 54.4137 9.23801V7.44824C54.4137 6.39542 53.6964 5.7725 52.3707 5.7725C51.063 5.7725 50.3094 6.40419 50.3094 7.47455H51.3265C51.3265 6.96569 51.6987 6.65863 52.3526 6.65863C53.0425 6.65863 53.3605 6.94815 53.3513 7.44824V7.67634L52.1799 7.79917C50.8633 7.93953 50.1369 8.42207 50.1369 9.26433C50.1369 9.95743 50.6453 10.6154 51.7714 10.6154ZM51.9983 9.82583C51.4263 9.82583 51.1994 9.52754 51.1994 9.22922C51.1994 8.82566 51.6716 8.64141 52.5977 8.53614L53.3242 8.45718C53.2787 9.22922 52.743 9.82583 51.9983 9.82583ZM58.2223 10.8172C57.7592 11.9051 57.0146 12.2297 55.8524 12.2297H55.3528V11.3349H55.8887C56.5242 11.3349 56.8329 11.1418 57.169 10.5891L55.1077 5.91288H56.2517L57.7229 9.32574L59.0304 5.91288H60.1473L58.2223 10.8172Z" fill="#5A31F4"/>
  <path d="M4.4954 6.5933C2.97857 6.27538 2.30282 6.15097 2.30282 5.58623C2.30282 5.05505 2.76013 4.79046 3.67473 4.79046C4.47907 4.79046 5.06703 5.13009 5.49983 5.79554C5.53249 5.84689 5.59986 5.86466 5.65498 5.83701L7.36169 5.00372C7.42292 4.97409 7.44539 4.89906 7.41069 4.84179C6.70228 3.65505 5.39367 3.00538 3.67063 3.00538C1.40661 3.00538 0 4.08354 0 5.79752C0 7.61813 1.71283 8.07822 3.23172 8.39614C4.75059 8.71405 5.42837 8.83844 5.42837 9.40318C5.42837 9.96793 4.93433 10.2345 3.94827 10.2345C3.03776 10.2345 2.36203 9.83169 1.95372 9.04973C1.92311 8.99246 1.85164 8.96877 1.79245 8.9984L0.0898273 9.81391C0.0306218 9.84354 0.00612362 9.91264 0.0367473 9.97188C0.712487 11.285 2.09867 12.0235 3.95032 12.0235C6.30827 12.0235 7.73323 10.9632 7.73323 9.19586C7.73323 7.42856 6.01224 6.91517 4.4954 6.59725V6.5933Z" fill="#5A31F4"/>
  <path d="M13.6414 3.00538C12.6737 3.00538 11.8183 3.33713 11.2038 3.92753C11.165 3.96308 11.1017 3.93741 11.1017 3.88607V0.116503C11.1017 0.0513405 11.0487 0 10.9813 0H8.84588C8.77851 0 8.72541 0.0513405 8.72541 0.116503V11.8162C8.72541 11.8813 8.77851 11.9327 8.84588 11.9327H10.9813C11.0487 11.9327 11.1017 11.8813 11.1017 11.8162V6.68412C11.1017 5.69287 11.8877 4.93263 12.9473 4.93263C14.0068 4.93263 14.7744 5.67707 14.7744 6.68412V11.8162C14.7744 11.8813 14.8275 11.9327 14.8949 11.9327H17.0303C17.0977 11.9327 17.1507 11.8813 17.1507 11.8162V6.68412C17.1507 4.52783 15.689 3.00737 13.6414 3.00737V3.00538Z" fill="#5A31F4"/>
  <path d="M21.4869 2.67167C20.3273 2.67167 19.2372 3.01327 18.4572 3.5089C18.4042 3.54248 18.3859 3.61158 18.4186 3.6649L19.3596 5.21893C19.3944 5.27422 19.4678 5.29397 19.5249 5.2604C20.117 4.91484 20.7948 4.73515 21.4869 4.7391C23.3507 4.7391 24.7205 6.01077 24.7205 7.69117C24.7205 9.12277 23.6243 10.1832 22.234 10.1832C21.101 10.1832 20.3151 9.54536 20.3151 8.64491C20.3151 8.12953 20.5416 7.70697 21.1316 7.4088C21.1928 7.37721 21.2154 7.30415 21.1787 7.24687L20.2906 5.79355C20.2619 5.74617 20.2008 5.72445 20.1455 5.74418C18.9554 6.17071 18.1203 7.19751 18.1203 8.57581C18.1203 10.661 19.8373 12.217 22.2321 12.217C25.0289 12.217 27.0398 10.3431 27.0398 7.65563C27.0398 4.77464 24.7003 2.66968 21.4828 2.66968L21.4869 2.67167Z" fill="#5A31F4"/>
  <path d="M33.2846 2.98958C32.2046 2.98958 31.241 3.37463 30.5367 4.05391C30.4979 4.09143 30.4346 4.06378 30.4346 4.01245V3.19496C30.4346 3.12979 30.3816 3.07844 30.3141 3.07844H28.2339C28.1666 3.07844 28.1134 3.12979 28.1134 3.19496V14.8769C28.1134 14.942 28.1666 14.9934 28.2339 14.9934H30.3692C30.4367 14.9934 30.4898 14.942 30.4898 14.8769V11.0461C30.4898 10.9947 30.5531 10.9691 30.5917 11.0026C31.2942 11.6345 32.2229 12.0038 33.2867 12.0038C35.7915 12.0038 37.7452 10.043 37.7452 7.49569C37.7452 4.94841 35.7894 2.98762 33.2867 2.98762L33.2846 2.98958ZM32.8825 10.0252C31.4574 10.0252 30.3774 8.92928 30.3774 7.47989C30.3774 6.03052 31.4553 4.9346 32.8825 4.9346C34.3095 4.9346 35.3853 6.01275 35.3853 7.47989C35.3853 8.94705 34.3236 10.0252 32.8804 10.0252H32.8825Z" fill="#5A31F4"/>
</svg>