<svg width="29" height="18" viewBox="0 0 29 18" fill="none" xmlns="http://www.w3.org/2000/svg">
<path opacity="0.07" d="M26.7105 0H2.28947C0.992105 0 0 0.975 0 2.25V15.75C0 17.025 1.06842 18 2.28947 18H26.7105C28.0079 18 29 17.025 29 15.75V2.25C29 0.975 27.9316 0 26.7105 0Z" fill="black"/>
<path d="M26.711 0.749512C27.5505 0.749512 28.2374 1.42451 28.2374 2.24951V15.7495C28.2374 16.5745 27.5505 17.2495 26.711 17.2495H2.28999C1.45051 17.2495 0.763672 16.5745 0.763672 15.7495V2.24951C0.763672 1.42451 1.45051 0.749512 2.28999 0.749512H26.711Z" fill="white"/>
<path d="M19.278 12.1699C17.9829 13.2799 16.1056 13.8724 14.4892 13.8724C12.2226 13.8724 10.1819 12.8974 8.63882 11.2752C8.51672 11.1477 8.62509 10.9737 8.77085 11.0727C10.4368 12.2007 12.4966 12.8787 14.6243 12.8787C16.059 12.8787 17.6387 12.5337 19.0887 11.8167C19.3085 11.7079 19.4932 11.9832 19.278 12.1692V12.1699ZM19.8168 11.4522C19.652 11.2062 18.7224 11.3359 18.3057 11.3937C18.1783 11.4117 18.1585 11.2827 18.2729 11.1912C19.0132 10.5837 20.2281 10.7592 20.3701 10.9624C20.5128 11.1664 20.3342 12.5824 19.6375 13.2597C19.5306 13.3632 19.4299 13.3077 19.4772 13.1697C19.6336 12.7167 19.9839 11.6997 19.8176 11.4522H19.8168Z" fill="#FF9900"/>
<path d="M16.6493 11.4688C16.2112 11.0953 16.1334 10.9213 15.8915 10.565C15.1688 11.324 14.6567 11.5513 13.7165 11.5513C12.6076 11.5513 11.7422 10.8478 11.7422 9.43778C11.7422 8.33753 12.3237 7.58753 13.1495 7.22153C13.8668 6.89678 14.8666 6.83903 15.6297 6.75053V6.57428C15.6297 6.25178 15.6549 5.86928 15.471 5.59178C15.3092 5.34203 15.0009 5.23928 14.7307 5.23928C14.227 5.23928 13.7768 5.50403 13.6684 6.05303C13.6455 6.17528 13.5585 6.29528 13.4395 6.30053L12.1596 6.16028C12.0528 6.13553 11.9337 6.04553 11.9635 5.87528C12.2581 4.28153 13.66 3.80078 14.9146 3.80078C15.5557 3.80078 16.3952 3.97628 16.9019 4.47578C17.5445 5.09078 17.4834 5.91428 17.4834 6.80828V8.92178C17.4834 9.55703 17.7391 9.83678 17.9795 10.1788C18.0657 10.3018 18.0848 10.4488 17.9772 10.5403C17.7078 10.7713 17.2293 11.2003 16.9652 11.4403C16.9217 11.4759 16.8682 11.4977 16.8118 11.5027C16.7554 11.5078 16.6987 11.496 16.6493 11.4688ZM15.3832 9.56903C15.6427 9.09953 15.6297 8.65853 15.6297 8.13053V7.83653C14.6758 7.83653 13.6684 8.04653 13.6684 9.20153C13.6684 9.78803 13.963 10.184 14.4697 10.184C14.8414 10.184 15.1733 9.95003 15.3832 9.56903Z" fill="#221F1F"/>
</svg>
