<svg width="30" height="18" viewBox="0 0 30 18" fill="none" xmlns="http://www.w3.org/2000/svg">
  <path opacity="0.07" d="M26.7282 0H2.30716C1.00979 0 0.0176849 0.975 0.0176849 2.25V15.75C0.0176849 17.025 1.08611 18 2.30716 18H26.7282C28.0256 18 29.0177 17.025 29.0177 15.75V2.25C29.0177 0.975 27.9493 0 26.7282 0Z" fill="black"/>
  <path d="M26.7287 0.749512C27.5682 0.749512 28.255 1.42451 28.255 2.24951V15.7495C28.255 16.5745 27.5682 17.2495 26.7287 17.2495H2.30767C1.4682 17.2495 0.781357 16.5745 0.781357 15.7495V2.24951C0.781357 1.42451 1.4682 0.749512 2.30767 0.749512H26.7287Z" fill="#006FCF"/>
  <path d="M6.86408 7.69709L7.45476 9.10409H6.27797L6.86408 7.69709ZM19.1318 7.75559H16.8599V8.37584H19.0952V9.30509H16.8645V9.99659H19.1364V10.5508L20.7215 8.86709L19.1364 7.11209L19.1318 7.75559ZM8.39955 6.00059H11.4484L12.1253 7.45184L12.7526 5.99609H20.6665L21.4892 6.88859L22.3402 5.99609H25.9751L23.2895 8.88509L25.9476 11.7561H22.2585L21.4358 10.8636L20.5773 11.7561H7.67226L7.29526 10.8636H6.43289L6.05513 11.7561H3.07042L5.57816 5.99609H8.19579L8.39955 6.00059ZM15.0108 6.80909H13.3021L12.1573 9.46109L10.9172 6.80909H9.22147V10.4166L7.64937 6.80909H6.12839L4.31055 10.9431H5.49726L5.87426 10.0506H7.85542L8.23242 10.9431H10.3082V7.99184L11.6445 10.9476H12.5527L13.8806 8.00084V10.9483H14.9932L15.0115 6.80834L15.0108 6.80909ZM22.1387 8.88509L24.0702 6.80909H22.6798L21.4579 8.10359L20.2766 6.80909H15.7785V10.9476H20.2125L21.4442 9.64409L22.6256 10.9476H24.0565L22.1394 8.88509H22.1387Z" fill="white"/>
</svg>
