<svg width="29" height="18" viewBox="0 0 29 18" fill="none" xmlns="http://www.w3.org/2000/svg">
  <path d="M26.0831 0H2.59749C2.49966 0 2.40165 0 2.30399 0.000509602C2.22155 0.00118907 2.13927 0.00203841 2.05682 0.00424669C1.87723 0.00900297 1.69609 0.0195348 1.51875 0.0507904C1.3409 0.0807362 1.16858 0.136556 1.00746 0.216411C0.683576 0.378308 0.420315 0.637031 0.255578 0.955334C0.174176 1.11373 0.117371 1.28321 0.0870513 1.45814C0.0549016 1.6326 0.0443579 1.81045 0.0395182 1.98677C0.0374117 2.06772 0.036144 2.1487 0.0357156 2.22968C0.0353699 2.32549 0.0353699 2.42163 0.0353699 2.51794V15.4819C0.0353699 15.5782 0.0353699 15.6742 0.0357156 15.7705C0.0362341 15.8513 0.0372712 15.9324 0.0395182 16.0134C0.0443579 16.1894 0.0550745 16.3674 0.0870513 16.5417C0.117309 16.7166 0.174056 16.8861 0.255405 17.0445C0.337193 17.2027 0.443952 17.3472 0.571716 17.4726C0.699261 17.5982 0.846281 17.7031 1.00729 17.7834C1.17098 17.8655 1.33864 17.9176 1.51892 17.9494C1.69609 17.9805 1.87723 17.991 2.05682 17.9958C2.13927 17.9976 2.22155 17.9986 2.30399 17.9992C2.40165 17.9998 2.49966 17.9998 2.59749 17.9998H26.0831C26.1808 17.9998 26.2788 17.9998 26.3765 17.9992C26.4587 17.9988 26.541 17.9976 26.6238 17.9958C26.8031 17.991 26.9842 17.9805 27.1619 17.9494C27.3398 17.9194 27.5121 17.8635 27.6732 17.7834C27.9969 17.6213 28.2601 17.3626 28.4251 17.0445C28.5085 16.8836 28.5614 16.7189 28.5934 16.5417C28.6256 16.3674 28.6359 16.1894 28.6408 16.0134C28.643 15.9324 28.6442 15.8513 28.6446 15.7705C28.6453 15.6742 28.6453 15.5782 28.6453 15.4819V2.51811C28.6453 2.4218 28.6453 2.32565 28.6446 2.22951C28.6442 2.14858 28.643 2.06767 28.6408 1.98677C28.6359 1.81045 28.6256 1.6326 28.5934 1.45814C28.5633 1.28318 28.5065 1.11368 28.4251 0.955334C28.2602 0.637086 27.997 0.378385 27.6732 0.216411C27.512 0.136638 27.3397 0.0808769 27.1619 0.0509602C26.9842 0.0195348 26.8031 0.00917284 26.6238 0.00441655C26.5414 0.002359 26.4589 0.00111324 26.3765 0.00067947C26.2788 0 26.1808 0 26.0831 0Z" fill="#E4E4E4"/>
  <path d="M26.0839 0.597168L26.3729 0.597678C26.451 0.598187 26.5293 0.599037 26.608 0.601075C26.745 0.604812 26.9051 0.612116 27.0544 0.638446C27.1841 0.661378 27.293 0.696201 27.3974 0.74852C27.6063 0.852913 27.776 1.0199 27.882 1.22534C27.9349 1.32726 27.9702 1.4336 27.9935 1.56218C28.0201 1.70725 28.0276 1.86506 28.0312 2.00044C28.0335 2.07688 28.0345 2.15332 28.0347 2.23146C28.0355 2.32608 28.0355 2.42052 28.0355 2.51531V15.4793C28.0355 15.574 28.0355 15.6685 28.0348 15.765C28.0345 15.8414 28.0334 15.9179 28.0314 15.9943C28.0276 16.1295 28.0201 16.2873 27.9932 16.4341C27.9736 16.5508 27.936 16.664 27.8817 16.7696C27.7755 16.9751 27.6055 17.1421 27.3963 17.2464C27.2926 17.2984 27.1841 17.3332 27.0557 17.3559C26.9034 17.3826 26.7364 17.3899 26.6107 17.3933C26.5318 17.395 26.4531 17.3962 26.3724 17.3965C26.2765 17.3972 26.18 17.3972 26.0839 17.3972H2.59444C2.49938 17.3972 2.40431 17.3972 2.30752 17.3965C2.22973 17.3962 2.15194 17.3952 2.07417 17.3935C1.94557 17.3901 1.7786 17.3826 1.62754 17.3561C1.50809 17.3366 1.39236 17.2993 1.28426 17.2457C1.18057 17.1939 1.08593 17.1263 1.0039 17.0453C0.92161 16.9645 0.852883 16.8715 0.800287 16.7696C0.745969 16.6634 0.708323 16.5497 0.688627 16.4324C0.661663 16.2858 0.654058 16.1287 0.650601 15.9945C0.648648 15.9178 0.647496 15.841 0.647144 15.7643L0.646626 15.5389V2.45586L0.646971 2.23078C0.647328 2.15394 0.64848 2.0771 0.650428 2.00027C0.654231 1.86574 0.661663 1.70861 0.6888 1.56083C0.708535 1.44376 0.746181 1.33031 0.80046 1.22432C0.853174 1.12239 0.922017 1.02934 1.00442 0.948624C1.08665 0.867684 1.18139 0.800033 1.28512 0.74818C1.39296 0.69494 1.50833 0.657948 1.62736 0.638446C1.77688 0.612116 1.93711 0.604812 2.07435 0.601075C2.15234 0.599182 2.23036 0.59805 2.30838 0.597678L2.59825 0.597168H26.0839Z" fill="white"/>
  <path d="M7.55766 6.0758C7.80034 5.77768 7.96489 5.3773 7.92151 4.96826C7.56648 4.98559 7.13332 5.19843 6.88235 5.49689C6.65713 5.75237 6.45783 6.16939 6.50969 6.56128C6.90827 6.59525 7.30651 6.36559 7.55766 6.0758ZM7.91701 6.63789C7.33797 6.60392 6.84605 6.96064 6.56966 6.96064C6.29311 6.96064 5.8698 6.65488 5.41193 6.6632C4.81613 6.67169 4.26336 7.00293 3.96088 7.52952C3.33897 8.5827 3.79667 10.1455 4.40164 11.0033C4.69531 11.428 5.0493 11.8951 5.51564 11.8783C5.9564 11.8613 6.12908 11.598 6.66456 11.598C7.19987 11.598 7.35543 11.8783 7.82195 11.8698C8.30557 11.8613 8.60806 11.4451 8.90172 11.0205C9.23878 10.5363 9.37654 10.0692 9.38518 10.0437C9.37654 10.0352 8.45249 9.68684 8.44385 8.64215C8.43521 7.76734 9.16946 7.35116 9.20403 7.32551C8.78937 6.72282 8.14154 6.65488 7.91684 6.63789" fill="black"/>
  <path d="M13.6847 5.45215C14.9427 5.45215 15.8189 6.30437 15.8189 7.54508C15.8189 8.79021 14.9247 9.64685 13.6532 9.64685H12.2604V11.8239H11.2541V5.45215H13.6847ZM12.2604 8.81671H13.4151C14.2914 8.81671 14.7899 8.35314 14.7899 7.5495C14.7899 6.74603 14.2912 6.28671 13.4196 6.28671H12.2604V8.81671ZM16.0684 10.5035C16.0684 9.6866 16.7019 9.21862 17.87 9.14795L19.1235 9.07287V8.71955C19.1235 8.20315 18.7777 7.92049 18.1621 7.92049C17.6543 7.92049 17.2858 8.17648 17.2098 8.56938H16.302C16.3291 7.74383 17.1197 7.14335 18.1891 7.14335C19.3392 7.14335 20.0896 7.735 20.0896 8.65347V11.8237H19.1596V11.0598H19.1372C18.872 11.5587 18.2878 11.8721 17.6543 11.8721C16.7199 11.8721 16.0684 11.3248 16.0684 10.5035ZM19.1235 10.0929V9.73519L18.0049 9.80585C17.3757 9.8456 17.048 10.0751 17.048 10.4768C17.048 10.8655 17.3893 11.1172 17.924 11.1172C18.6067 11.1172 19.1235 10.6888 19.1235 10.0929ZM20.9446 13.528V12.7643C21.0076 12.7729 21.1602 12.7818 21.2411 12.7818C21.6858 12.7818 21.9375 12.5966 22.0903 12.1194L22.1802 11.837L20.4773 7.20076H21.5285L22.7148 10.9626H22.7372L23.9233 7.20076H24.9478L23.182 12.0709C22.7775 13.1881 22.3148 13.5547 21.3355 13.5547C21.2591 13.5547 21.0119 13.5458 20.9446 13.528Z" fill="black"/>
</svg>
