<svg width="30" height="18" viewBox="0 0 30 18" fill="none" xmlns="http://www.w3.org/2000/svg">
  <path opacity="0.07" d="M27.3735 0H2.95242C1.65505 0 0.662949 0.975 0.662949 2.25V15.75C0.662949 17.025 1.73137 18 2.95242 18H27.3735C28.6708 18 29.6629 17.025 29.6629 15.75V2.25C29.6629 0.975 28.5945 0 27.3735 0Z" fill="black"/>
  <path d="M27.374 0.749512C28.2135 0.749512 28.9003 1.42451 28.9003 2.24951V15.7495C28.9003 16.5745 28.2135 17.2495 27.374 17.2495H2.95294C2.11346 17.2495 1.42662 16.5745 1.42662 15.7495V2.24951C1.42662 1.42451 2.11346 0.749512 2.95294 0.749512H27.374Z" fill="white"/>
  <path d="M9.81925 8.99756V11.7726C9.81925 11.9976 9.66662 11.9976 9.43767 11.9226C7.98767 11.3226 7.1482 9.44756 7.68241 7.87256C7.98767 7.04756 8.5982 6.37256 9.43767 6.07256C9.74294 5.92256 9.81925 5.99756 9.81925 6.22256V8.99756ZM11.3456 8.99756V6.22256C11.3456 5.99756 11.3456 5.99756 11.5745 6.07256C13.1771 6.67256 14.0166 8.54756 13.4061 10.1226C13.1008 10.9476 12.4903 11.6226 11.6508 11.9226C11.3456 12.0726 11.3456 11.9976 11.3456 11.7726V8.99756ZM16.8403 3.74756H10.5824C13.4824 3.74756 15.7719 6.07256 15.7719 8.99756C15.7719 11.9226 13.4824 14.2476 10.5824 14.2476H16.8403C19.7403 14.2476 22.0298 11.9226 22.0298 8.99756C22.0298 6.07256 19.7403 3.74756 16.8403 3.74756Z" fill="#3086C8"/>
</svg>
