<svg width="30" height="18" viewBox="0 0 30 18" fill="none" xmlns="http://www.w3.org/2000/svg">
  <path opacity="0.07" d="M27.3912 0H2.97011C1.67274 0 0.680634 0.975 0.680634 2.25V15.75C0.680634 17.025 1.74905 18 2.97011 18H27.3912C28.6885 18 29.6806 17.025 29.6806 15.75V2.25C29.6806 0.975 28.6122 0 27.3912 0Z" fill="black"/>
  <path d="M27.3917 0.749512C28.2311 0.749512 28.918 1.42451 28.918 2.24951V15.7495C28.918 16.5745 28.2311 17.2495 27.3917 17.2495H2.97062C2.13115 17.2495 1.44431 16.5745 1.44431 15.7495V2.24951C1.44431 1.42451 2.13115 0.749512 2.97062 0.749512H27.3917Z" fill="white"/>
  <path d="M3.40419 5.36979H2.20603V9.49478H3.40419C4.03761 9.49478 4.49551 9.34478 4.89998 9.02228C5.38077 8.63228 5.66314 8.04729 5.66314 7.43979C5.65551 6.21729 4.73208 5.36979 3.40419 5.36979ZM4.36577 8.47479C4.10629 8.69978 3.77814 8.80478 3.24393 8.80478H3.02261V6.07479H3.24393C3.77051 6.07479 4.09103 6.16479 4.36577 6.40479C4.64814 6.65229 4.81603 7.03478 4.81603 7.43228C4.81603 7.82978 4.64814 8.22729 4.36577 8.47479ZM6.03708 5.36979H6.85366V9.49478H6.03708V5.36979ZM8.85314 6.95229C8.36472 6.77229 8.21972 6.65228 8.21972 6.43479C8.21972 6.17229 8.47919 5.97728 8.83024 5.97728C9.07445 5.97728 9.28051 6.07479 9.48656 6.31479L9.91393 5.76729C9.56287 5.46729 9.14314 5.30979 8.67761 5.30979C7.93735 5.30979 7.36498 5.81979 7.36498 6.49478C7.36498 7.06478 7.63208 7.35729 8.39524 7.62729C8.71577 7.73978 8.87603 7.81478 8.95998 7.85978C9.12024 7.96478 9.20419 8.11479 9.20419 8.28729C9.20419 8.62478 8.93708 8.87228 8.57077 8.87228C8.18156 8.87228 7.86866 8.67729 7.67787 8.32479L7.15129 8.82729C7.52524 9.37479 7.98314 9.61478 8.60129 9.61478C9.4484 9.61478 10.0513 9.05979 10.0513 8.25729C10.0666 7.58979 9.78419 7.28979 8.85314 6.95229ZM10.3184 7.43979C10.3184 8.65478 11.2876 9.59228 12.5316 9.59228C12.8826 9.59228 13.1879 9.52479 13.5542 9.35228V8.40728C13.226 8.72978 12.936 8.85729 12.5697 8.85729C11.7455 8.85729 11.1579 8.27228 11.1579 7.43228C11.1579 6.63728 11.7608 6.01479 12.5316 6.01479C12.9208 6.01479 13.2184 6.14979 13.5542 6.47979V5.53479C13.1955 5.35479 12.8979 5.27979 12.5468 5.27979C11.3181 5.27979 10.3184 6.23979 10.3184 7.43979ZM20.0563 8.14478L18.9345 5.36979H18.0416L19.8197 9.59978H20.2623L22.071 5.36979H21.1858L20.0563 8.14478ZM22.445 9.49478H24.765V8.79728H23.2616V7.68728H24.7116V6.98978H23.2616V6.07479H24.765V5.36979H22.445V9.49478ZM28.0084 6.59229C28.0084 5.81979 27.4666 5.37729 26.5202 5.37729H25.3068V9.50229H26.1234V7.84478H26.2302L27.3597 9.50229H28.3671L27.0468 7.76229C27.665 7.63479 28.0084 7.22229 28.0084 6.59229ZM26.36 7.27478H26.1234V6.02228H26.3752C26.8866 6.02228 27.1613 6.23229 27.1613 6.63729C27.1613 7.04979 26.8866 7.27478 26.36 7.27478Z" fill="#231F20"/>
  <path d="M16.0659 9.64357C16.6591 9.64357 17.2281 9.41197 17.6476 8.99972C18.067 8.58747 18.3027 8.02833 18.3027 7.44532C18.3027 6.86231 18.067 6.30317 17.6476 5.89092C17.2281 5.47867 16.6591 5.24707 16.0659 5.24707C15.4726 5.24707 14.9037 5.47867 14.4842 5.89092C14.0647 6.30317 13.8291 6.86231 13.8291 7.44532C13.8291 8.02833 14.0647 8.58747 14.4842 8.99972C14.9037 9.41197 15.4726 9.64357 16.0659 9.64357Z" fill="black" fill-opacity="0.49"/>
  <path d="M16.0659 9.64357C16.6591 9.64357 17.2281 9.41197 17.6476 8.99972C18.067 8.58747 18.3027 8.02833 18.3027 7.44532C18.3027 6.86231 18.067 6.30317 17.6476 5.89092C17.2281 5.47867 16.6591 5.24707 16.0659 5.24707C15.4726 5.24707 14.9037 5.47867 14.4842 5.89092C14.0647 6.30317 13.8291 6.86231 13.8291 7.44532C13.8291 8.02833 14.0647 8.58747 14.4842 8.99972C14.9037 9.41197 15.4726 9.64357 16.0659 9.64357Z" fill="#E67526"/>
  <path d="M28.591 5.63129C28.591 5.55613 28.5375 5.51855 28.4534 5.51855H28.331V5.87929H28.4228V5.7365L28.5299 5.87929H28.6369L28.5146 5.72899C28.5604 5.72147 28.591 5.68389 28.591 5.63129ZM28.4381 5.68389H28.4228V5.58619H28.4381C28.484 5.58619 28.5069 5.60122 28.5069 5.63129C28.5069 5.66886 28.484 5.68389 28.4381 5.68389Z" fill="#231F20"/>
  <path d="M28.468 5.37939C28.2924 5.37939 28.1474 5.52189 28.1474 5.69439C28.1474 5.86689 28.2924 6.00939 28.468 6.00939C28.6435 6.00939 28.7885 5.86689 28.7885 5.69439C28.7885 5.52189 28.6435 5.37939 28.468 5.37939ZM28.468 5.95689C28.3306 5.95689 28.2085 5.84439 28.2085 5.69439C28.2085 5.55189 28.323 5.43189 28.468 5.43189C28.6053 5.43189 28.7198 5.55189 28.7198 5.69439C28.7198 5.83689 28.6053 5.95689 28.468 5.95689Z" fill="#231F20"/>
  <path d="M28.9189 9.7373C28.9189 9.7373 21.356 14.9041 7.5322 17.2493H27.3919C27.7945 17.2493 28.1809 17.0929 28.4668 16.8142C28.7527 16.5355 28.9149 16.157 28.9182 15.7613L28.9365 13.4963L28.9189 9.73805V9.7373Z" fill="#E67526"/>
</svg>
