<svg width="29" height="18" viewBox="0 0 29 18" fill="none" xmlns="http://www.w3.org/2000/svg">
  <path opacity="0.07" d="M26.5055 0H2.92653C1.6739 0 0.716003 0.975 0.716003 2.25V15.75C0.716003 17.025 1.74758 18 2.92653 18H26.5055C27.7581 18 28.716 17.025 28.716 15.75V2.25C28.716 0.975 27.6844 0 26.5055 0Z" fill="black"/>
  <path d="M26.505 0.749512C27.3156 0.749512 27.9787 1.42451 27.9787 2.24951V15.7495C27.9787 16.5745 27.3156 17.2495 26.505 17.2495H2.92609C2.11557 17.2495 1.45241 16.5745 1.45241 15.7495V2.24951C1.45241 1.42451 2.11557 0.749512 2.92609 0.749512H26.505Z" fill="white"/>
  <path d="M14.0481 8.98425V11.3842H13.298V5.45925H15.2809C15.5185 5.45515 15.7545 5.4989 15.9754 5.58797C16.1963 5.67704 16.3978 5.80967 16.5681 5.97825C16.7295 6.13154 16.8597 6.31571 16.9511 6.52023C17.0425 6.72474 17.0935 6.94559 17.101 7.17015C17.1085 7.39471 17.0725 7.61858 16.995 7.82896C16.9174 8.03934 16.7999 8.23211 16.6492 8.39625L16.5681 8.48325C16.2218 8.8185 15.7591 9.00075 15.2809 8.98875L14.0481 8.98425ZM14.0481 6.18525V8.27625H15.2993C15.5771 8.28525 15.8453 8.175 16.0398 7.97325C16.179 7.82563 16.2724 7.63962 16.3085 7.43837C16.3446 7.23712 16.3218 7.02951 16.2429 6.84137C16.1639 6.65322 16.0324 6.49285 15.8647 6.38019C15.6969 6.26753 15.5003 6.20756 15.2993 6.20775L14.0481 6.18525ZM18.8258 7.19625C19.3048 7.17375 19.7734 7.33725 20.1359 7.656C20.4638 7.9785 20.6385 8.4285 20.6149 8.89275V11.3932H19.9009V10.8187H19.8648C19.7367 11.0342 19.5557 11.212 19.3395 11.3344C19.1233 11.4569 18.8794 11.5198 18.632 11.517C18.2282 11.5303 17.8343 11.3875 17.5297 11.1172C17.3854 10.9974 17.2697 10.8458 17.1915 10.6737C17.1132 10.5017 17.0744 10.3138 17.078 10.1242C17.0695 9.93269 17.1061 9.74184 17.1846 9.56756C17.2632 9.39328 17.3815 9.24061 17.5297 9.12225C17.8933 8.85612 18.3333 8.72027 18.7809 8.736C19.1618 8.721 19.5398 8.80575 19.8788 8.98425V8.82825C19.8813 8.69927 19.8549 8.5714 19.8017 8.45433C19.7484 8.33725 19.6697 8.23404 19.5715 8.1525C19.3743 7.96999 19.1159 7.87123 18.8494 7.8765C18.6559 7.87464 18.465 7.92305 18.295 8.01714C18.1249 8.11123 17.9812 8.24791 17.8775 8.41425L17.218 7.99125C17.3971 7.7301 17.6389 7.51994 17.9203 7.38078C18.2017 7.24163 18.5135 7.1781 18.8258 7.19625ZM17.8775 10.1422C17.8757 10.2394 17.8975 10.3355 17.9408 10.4221C17.9841 10.5086 18.0476 10.5831 18.1258 10.6387C18.2901 10.7707 18.4942 10.8405 18.7042 10.836C19.0204 10.8352 19.3232 10.7085 19.5487 10.482C19.7734 10.2675 19.9009 9.96825 19.9009 9.65475C19.6172 9.44948 19.2725 9.35038 18.9253 9.37425C18.6557 9.36344 18.3897 9.44071 18.1663 9.59475C18.0779 9.65499 18.0053 9.73642 17.9549 9.83187C17.9046 9.92733 17.878 10.0339 17.8775 10.1422ZM24.7198 7.32975L22.2219 13.1722H21.4497L22.3936 11.1262L20.7549 7.32975H21.5676L22.7554 10.2435L23.9115 7.32975H24.7198Z" fill="#5F6368"/>
  <path d="M11.0207 8.46393C11.0207 8.23293 11.003 8.00193 10.9669 7.77393H7.80585V9.08418H9.61185C9.57508 9.29241 9.49739 9.49094 9.38344 9.66789C9.26949 9.84483 9.12162 9.99654 8.94869 10.1139V10.9644H10.0274C10.3554 10.6414 10.6133 10.252 10.7844 9.8213C10.9554 9.39062 11.0359 8.92822 11.0207 8.46393Z" fill="#4285F4"/>
  <path d="M7.81106 11.7919C8.62625 11.8147 9.41933 11.5205 10.029 10.9692L8.94875 10.1142C8.6892 10.2836 8.39512 10.3905 8.08887 10.4268C7.78262 10.4631 7.47227 10.4278 7.18142 10.3237C6.89057 10.2196 6.62687 10.0493 6.41039 9.82587C6.19391 9.60241 6.03034 9.33165 5.93212 9.03418H4.82538V9.91168C5.10232 10.4765 5.52836 10.9515 6.05572 11.2836C6.58309 11.6158 7.19092 11.7918 7.81106 11.7919Z" fill="#34A853"/>
  <path d="M5.93165 9.03715C5.79149 8.61513 5.79149 8.15792 5.93165 7.7359V6.8584H4.82491C4.58896 7.33199 4.466 7.85552 4.466 8.38652C4.466 8.91753 4.58896 9.44106 4.82491 9.91465L5.93165 9.03715Z" fill="#FBBC04"/>
  <path d="M7.81106 6.32892C8.2878 6.32006 8.74866 6.50338 9.09317 6.83892L10.0511 5.86917C9.44029 5.28568 8.63017 4.96741 7.79264 4.98192C7.17618 4.98507 6.57261 5.16192 6.04886 5.49288C5.5251 5.82384 5.10163 6.29597 4.82538 6.85692L5.93212 7.73517C6.06152 7.33023 6.31239 6.97678 6.64944 6.72452C6.98648 6.47227 7.39274 6.33392 7.81106 6.32892Z" fill="#EA4335"/>
</svg>
