<svg width="30" height="18" viewBox="0 0 30 18" fill="none" xmlns="http://www.w3.org/2000/svg">
  <path opacity="0.07" d="M27.4442 0H3.02316C1.72579 0 0.733688 0.975 0.733688 2.25V15.75C0.733688 17.025 1.80211 18 3.02316 18H27.4442C28.7416 18 29.7337 17.025 29.7337 15.75V2.25C29.7337 0.975 28.6653 0 27.4442 0Z" fill="black"/>
  <path d="M27.4447 0.749512C28.2842 0.749512 28.971 1.42451 28.971 2.24951V15.7495C28.971 16.5745 28.2842 17.2495 27.4447 17.2495H3.02368C2.1842 17.2495 1.49736 16.5745 1.49736 15.7495V2.24951C1.49736 1.42451 2.1842 0.749512 3.02368 0.749512H27.4447Z" fill="white"/>
  <path d="M12.1793 14.248C15.1297 14.248 17.5214 11.8975 17.5214 8.99805C17.5214 6.09855 15.1297 3.74805 12.1793 3.74805C9.22895 3.74805 6.8372 6.09855 6.8372 8.99805C6.8372 11.8975 9.22895 14.248 12.1793 14.248Z" fill="#EB001B"/>
  <path d="M18.2848 14.248C21.2351 14.248 23.6269 11.8975 23.6269 8.99805C23.6269 6.09855 21.2351 3.74805 18.2848 3.74805C15.3344 3.74805 12.9427 6.09855 12.9427 8.99805C12.9427 11.8975 15.3344 14.248 18.2848 14.248Z" fill="#F79E1B"/>
  <path d="M17.5216 8.99766C17.5216 7.19766 16.6058 5.62266 15.2321 4.72266C13.8585 5.69766 12.9427 7.27266 12.9427 8.99766C12.9427 10.7227 13.8585 12.3727 15.2321 13.2727C16.6058 12.3727 17.5216 10.7977 17.5216 8.99766Z" fill="#FF5F00"/>
</svg>
