<svg width="29" height="18" viewBox="0 0 29 18" fill="none" xmlns="http://www.w3.org/2000/svg">
<path opacity="0.07" d="M26.4878 0H2.90884C1.65621 0 0.698318 0.975 0.698318 2.25V15.75C0.698318 17.025 1.7299 18 2.90884 18H26.4878C27.7404 18 28.6983 17.025 28.6983 15.75V2.25C28.6983 0.975 27.6667 0 26.4878 0Z" fill="black"/>
<path d="M26.4874 0.749512C27.2979 0.749512 27.961 1.42451 27.961 2.24951V15.7495C27.961 16.5745 27.2979 17.2495 26.4874 17.2495H2.90841C2.09788 17.2495 1.43472 16.5745 1.43472 15.7495V2.24951C1.43472 1.42451 2.09788 0.749512 2.90841 0.749512H26.4874Z" fill="white"/>
<path d="M4.37185 9.73559C4.37185 9.99659 4.42785 10.1961 4.50154 10.3176C4.54061 10.3865 4.59693 10.4436 4.66476 10.4831C4.73258 10.5227 4.80949 10.5432 4.88764 10.5426C5.07701 10.5426 5.24943 10.4953 5.58248 10.0266C5.84922 9.65159 6.16312 9.12359 6.37533 8.79284L6.73343 8.23259C6.98175 7.84409 7.26985 7.41134 7.59996 7.11809C7.86964 6.87884 8.15996 6.74609 8.45322 6.74609C8.9447 6.74609 9.41259 7.03559 9.7707 7.57934C10.1627 8.17484 10.3528 8.92409 10.3528 9.69809C10.3528 10.1578 10.2644 10.4961 10.1126 10.7631C9.96522 11.0218 9.68006 11.2791 9.20038 11.2791V10.5433C9.61154 10.5433 9.71396 10.1586 9.71396 9.71834C9.71396 9.09134 9.57027 8.39534 9.25417 7.89809C9.02943 7.54559 8.73838 7.33034 8.41859 7.33034C8.07227 7.33034 7.79375 7.59584 7.47985 8.06984C7.31333 8.32184 7.14312 8.62859 6.9508 8.97509L6.73933 9.35609C6.31491 10.1211 6.20733 10.2966 5.99512 10.5838C5.62375 11.0878 5.30617 11.2791 4.88838 11.2791C4.39175 11.2791 4.07785 11.0608 3.88406 10.7316C3.72564 10.4631 3.64754 10.1106 3.64754 9.70859L4.37185 9.73484V9.73559Z" fill="#0081FB"/>
<path d="M4.21785 7.63109C4.54943 7.11059 5.02838 6.74609 5.5788 6.74609C5.89711 6.74609 6.21322 6.84209 6.54406 7.11659C6.90511 7.41659 7.29048 7.91159 7.7709 8.72609L7.94332 9.01859C8.35964 9.72359 8.59617 10.0866 8.73469 10.2576C8.91301 10.4773 9.03753 10.5426 9.19964 10.5426C9.6108 10.5426 9.71322 10.1586 9.71322 9.71834L10.3521 9.69809C10.3521 10.1578 10.2636 10.4961 10.1119 10.7631C9.96448 11.0218 9.67932 11.2791 9.19964 11.2791C8.90122 11.2791 8.63669 11.2131 8.3449 10.9326C8.11943 10.7173 7.85638 10.3341 7.65448 9.98984L7.05322 8.96759C6.75111 8.45459 6.4748 8.07209 6.31417 7.89884C6.14174 7.71209 5.92069 7.48709 5.56701 7.48709C5.28111 7.48709 5.03795 7.69184 4.83459 8.00459L4.21785 7.63109Z" fill="url(#paint0_linear_2061_12)"/>
<path d="M5.56775 7.48709C5.28185 7.48709 5.0387 7.69184 4.83533 8.00459C4.54796 8.44559 4.37185 9.10409 4.37185 9.73559C4.37185 9.99659 4.42785 10.1961 4.50154 10.3176L3.88406 10.7316C3.72564 10.4631 3.64754 10.1106 3.64754 9.70859C3.64754 8.97884 3.84427 8.21834 4.21859 7.63109C4.55017 7.10984 5.02912 6.74609 5.57954 6.74609L5.56775 7.48709Z" fill="url(#paint1_linear_2061_12)"/>
<path d="M11.7569 6.8916H12.5954L14.0198 9.5151L15.4448 6.8916H16.2642V11.2019H15.5804V7.8981L14.3314 10.1856H13.6904L12.4407 7.8981V11.2019H11.7576V6.8916H11.7569ZM18.4054 8.49885C17.9154 8.49885 17.62 8.87385 17.5492 9.33885H19.213C19.1791 8.86035 18.9072 8.49885 18.4054 8.49885ZM16.8721 9.60435C16.8721 8.6256 17.4932 7.91385 18.4172 7.91385C19.3265 7.91385 19.8695 8.6166 19.8695 9.6561V9.84735H17.55C17.6318 10.3529 17.9619 10.6941 18.4931 10.6941C18.9175 10.6941 19.1828 10.5621 19.4341 10.3214L19.7973 10.7736C19.4547 11.0939 19.02 11.2791 18.4688 11.2791C17.4682 11.2791 16.8721 10.5366 16.8721 9.60435ZM20.6985 8.56035H20.0692V7.99035H20.6985V7.04985H21.358V7.99185H22.3136V8.56185H21.358V10.0049C21.358 10.4976 21.5127 10.6724 21.8929 10.6724C22.0668 10.6724 22.1663 10.6574 22.3129 10.6326V11.1966C22.1302 11.2491 21.9555 11.2731 21.7662 11.2731C21.0544 11.2731 20.6978 10.8771 20.6978 10.0851V8.5611L20.6985 8.56035ZM25.0901 9.1146C25.0254 8.93652 24.9074 8.78363 24.7527 8.67757C24.598 8.57151 24.4144 8.51765 24.228 8.5236C23.6635 8.5236 23.3025 8.93085 23.3025 9.5946C23.3025 10.2419 23.6348 10.6694 24.2014 10.6694C24.6458 10.6694 24.9633 10.4061 25.0901 10.0784V9.1146ZM25.7495 11.2019H25.1026V10.7519C24.9213 11.0166 24.592 11.2791 24.0585 11.2791C23.2008 11.2791 22.6283 10.5479 22.6283 9.5946C22.6283 8.63235 23.2148 7.91385 24.0946 7.91385C24.5301 7.91385 24.872 8.09085 25.1026 8.4036V7.9911H25.7495V11.2019Z" fill="black"/>
<defs>
<linearGradient id="paint0_linear_2061_12" x1="5.0689" y1="9.52334" x2="9.68636" y2="9.75212" gradientUnits="userSpaceOnUse">
<stop stop-color="#0064E1"/>
<stop offset="0.4" stop-color="#0064E1"/>
<stop offset="0.83" stop-color="#0073EE"/>
<stop offset="1" stop-color="#0082FB"/>
</linearGradient>
<linearGradient id="paint1_linear_2061_12" x1="4.6968" y1="10.0453" x2="4.6968" y2="8.31284" gradientUnits="userSpaceOnUse">
<stop stop-color="#0082FB"/>
<stop offset="1" stop-color="#0064E0"/>
</linearGradient>
</defs>
</svg>
