<svg width="30" height="18" viewBox="0 0 30 18" fill="none" xmlns="http://www.w3.org/2000/svg">
  <path opacity="0.07" d="M27.4619 0H3.04085C1.74348 0 0.751373 0.975 0.751373 2.25V15.75C0.751373 17.025 1.81979 18 3.04085 18H27.4619C28.7593 18 29.7514 17.025 29.7514 15.75V2.25C29.7514 0.975 28.683 0 27.4619 0Z" fill="black"/>
  <path d="M27.4624 0.749512C28.3019 0.749512 28.9887 1.42451 28.9887 2.24951V15.7495C28.9887 16.5745 28.3019 17.2495 27.4624 17.2495H3.04136C2.20189 17.2495 1.51505 16.5745 1.51505 15.7495V2.24951C1.51505 1.42451 2.20189 0.749512 3.04136 0.749512H27.4624Z" fill="white"/>
  <path d="M18.9902 6.22305C19.1429 5.47305 18.9902 4.94805 18.5323 4.49805C18.0744 3.97305 17.235 3.74805 16.1665 3.74805H13.0376C12.8087 3.74805 12.656 3.89805 12.5797 4.12305L11.435 11.698C11.435 11.8481 11.5113 11.998 11.6639 11.998H13.7244L14.0297 9.44805L15.4034 7.79805L18.9902 6.22305Z" fill="#003087"/>
  <path d="M18.9904 6.22852L18.8378 6.37852C18.4562 8.47852 17.1588 9.22852 15.3272 9.22852H14.4878C14.2588 9.22852 14.1062 9.37852 14.0299 9.60352L13.572 12.5285L13.4193 13.2785C13.4193 13.4285 13.4957 13.5785 13.6483 13.5785H15.2509C15.4799 13.5785 15.6325 13.4285 15.6325 13.2785V13.2035L15.9378 11.4035V11.3285C15.9378 11.1785 16.1667 11.0285 16.3193 11.0285H16.5483C18.1509 11.0285 19.372 10.4285 19.6772 8.62852C19.8299 7.87852 19.7536 7.27852 19.372 6.82852C19.2957 6.45352 19.143 6.30352 18.9904 6.22852Z" fill="#3086C8"/>
  <path d="M18.5333 6.07559C18.457 6.00059 18.3807 6.00059 18.3044 6.00059C18.228 6.00059 18.1517 6.00059 18.0754 5.92559C17.8465 5.85059 17.5412 5.85059 17.2359 5.85059H14.9465C14.8701 5.85059 14.7938 5.85059 14.7938 5.92559C14.6412 6.00059 14.5649 6.07559 14.5649 6.22559L14.0307 9.52559V9.60059C14.0307 9.37559 14.2596 9.22559 14.4886 9.22559H15.4807C17.3886 9.22559 18.6096 8.47559 18.9912 6.37559V6.22559C18.9149 6.15059 18.7622 6.07559 18.6096 6.07559H18.5333Z" fill="#012169"/>
</svg>
