<svg width="30" height="18" viewBox="0 0 30 18" fill="none" xmlns="http://www.w3.org/2000/svg">
  <path opacity="0.07" d="M27.4796 0H3.05852C1.76115 0 0.769043 0.975 0.769043 2.25V15.75C0.769043 17.025 1.83746 18 3.05852 18H27.4796C28.7769 18 29.769 17.025 29.769 15.75V2.25C29.769 0.975 28.7006 0 27.4796 0Z" fill="black"/>
  <path d="M27.4801 0.749512C28.3196 0.749512 29.0064 1.42451 29.0064 2.24951V15.7495C29.0064 16.5745 28.3196 17.2495 27.4801 17.2495H3.05903C2.21956 17.2495 1.53271 16.5745 1.53271 15.7495V2.24951C1.53271 1.42451 2.21956 0.749512 3.05903 0.749512H27.4801Z" fill="#5A31F4"/>
  <path d="M17.0869 7.28076C17.0869 8.53176 16.1887 9.42426 14.934 9.42426H13.7519C13.7324 9.42455 13.7133 9.43036 13.6971 9.441C13.6809 9.45165 13.6681 9.46667 13.6603 9.48426C13.6553 9.49589 13.6527 9.50839 13.6527 9.52101V11.165C13.6527 11.1778 13.6501 11.1904 13.6451 11.2022C13.6401 11.214 13.6328 11.2247 13.6236 11.2337C13.6144 11.2427 13.6034 11.2498 13.5914 11.2546C13.5793 11.2594 13.5665 11.2619 13.5535 11.2618H12.7262C12.6999 11.2618 12.6747 11.2515 12.6561 11.2332C12.6374 11.2149 12.627 11.1901 12.627 11.1643V5.23551C12.6267 5.21619 12.6324 5.19724 12.6433 5.18117C12.6542 5.16509 12.6698 5.15266 12.688 5.14551C12.7001 5.14054 12.7131 5.13799 12.7262 5.13801H14.9394C16.1887 5.13801 17.0869 6.03051 17.0869 7.28151V7.28076ZM16.0551 7.28076C16.0551 6.56226 15.5529 6.03726 14.8722 6.03726H13.7519C13.7389 6.03726 13.726 6.03978 13.7139 6.04468C13.7019 6.04958 13.6909 6.05676 13.6817 6.06582C13.6725 6.07487 13.6652 6.08562 13.6602 6.09745C13.6552 6.10928 13.6527 6.12196 13.6527 6.13476V8.42226C13.6525 8.43509 13.655 8.44781 13.66 8.45967C13.665 8.47153 13.6724 8.48227 13.6817 8.49126C13.6909 8.50035 13.7018 8.50754 13.7139 8.51244C13.7259 8.51733 13.7388 8.51982 13.7519 8.51976H14.8722C15.5529 8.52351 16.0551 7.99851 16.0551 7.28076ZM17.3326 10.124C17.3239 9.93187 17.3646 9.74066 17.4509 9.56803C17.5372 9.3954 17.6663 9.24691 17.8264 9.13626C18.1492 8.89926 18.6537 8.77626 19.3947 8.75076L20.183 8.72376V8.49651C20.183 8.04126 19.8701 7.84926 19.368 7.84926C18.8658 7.84926 18.5476 8.02251 18.4751 8.30676C18.4689 8.32673 18.4562 8.34415 18.439 8.35635C18.4217 8.36854 18.4009 8.37484 18.3797 8.37426H17.5997C17.5783 8.37453 17.5573 8.36795 17.5399 8.35551C17.5226 8.34307 17.5098 8.32544 17.5036 8.30526C17.4994 8.29191 17.4984 8.27781 17.5005 8.26401C17.6165 7.59051 18.1904 7.07901 19.4038 7.07901C20.6951 7.07901 21.1614 7.66626 21.1614 8.78601V11.165C21.1613 11.1779 21.1586 11.1906 21.1535 11.2024C21.1483 11.2143 21.1409 11.225 21.1315 11.234C21.1222 11.243 21.1111 11.2501 21.0989 11.2548C21.0867 11.2596 21.0737 11.262 21.0607 11.2618H20.2746C20.2483 11.2618 20.2231 11.2515 20.2044 11.2332C20.1858 11.2149 20.1754 11.1901 20.1754 11.1643V10.9873C20.1756 10.9726 20.1713 10.9582 20.163 10.946C20.1547 10.9338 20.1428 10.9244 20.1288 10.919C20.1151 10.9137 20.1 10.9124 20.0855 10.9153C20.071 10.9183 20.0577 10.9253 20.0472 10.9355C19.8106 11.186 19.4305 11.3668 18.8208 11.3668C17.9241 11.3668 17.3326 10.9115 17.3326 10.124ZM20.183 9.60876V9.42426L19.1612 9.47676C18.6231 9.50376 18.3102 9.72126 18.3102 10.0888C18.3102 10.4218 18.5972 10.6063 19.0993 10.6063C19.7808 10.6063 20.183 10.2463 20.183 9.60876ZM21.9505 13.0588V12.3695C21.9507 12.3551 21.9541 12.3409 21.9606 12.3279C21.9671 12.3149 21.9764 12.3035 21.9879 12.2945C21.9993 12.2854 22.0126 12.2789 22.0268 12.2754C22.0411 12.2719 22.0559 12.2715 22.0703 12.2743C22.1909 12.296 22.313 12.3073 22.4359 12.3073C22.6463 12.3186 22.8545 12.2599 23.0269 12.1407C23.1993 12.0215 23.3258 11.8488 23.386 11.6503L23.4371 11.492C23.4447 11.4707 23.4447 11.4474 23.4371 11.426L21.8002 7.32276C21.7907 7.30024 21.7901 7.27505 21.7986 7.25214C21.8071 7.22924 21.824 7.21028 21.8459 7.19901C21.8605 7.19146 21.8768 7.18759 21.8933 7.18776H22.6869C22.7073 7.18781 22.7272 7.19394 22.7439 7.20532C22.7607 7.2167 22.7736 7.2328 22.7808 7.25151L23.892 10.1458C23.8988 10.1652 23.9117 10.182 23.9289 10.1939C23.946 10.2057 23.9664 10.212 23.9874 10.2118C24.0082 10.2117 24.0286 10.2054 24.0457 10.1936C24.0627 10.1818 24.0757 10.1651 24.0828 10.1458L25.0482 7.25976C25.0547 7.23986 25.0676 7.22256 25.0849 7.21041C25.1022 7.19825 25.123 7.19189 25.1443 7.19226H25.9655C25.9901 7.1924 26.0139 7.20128 26.0324 7.21727C26.0509 7.23325 26.0629 7.25527 26.0662 7.27926C26.0681 7.29527 26.066 7.31147 26.0601 7.32651L24.3087 11.8835C23.9057 12.9433 23.215 13.2133 22.4542 13.2133C22.3098 13.2172 22.1656 13.2005 22.026 13.1638C22.0027 13.1581 21.9821 13.1444 21.9681 13.1252C21.9541 13.1059 21.9476 13.0823 21.9497 13.0588H21.9505ZM7.30931 4.79601C6.26798 4.78836 5.26284 5.17109 4.4986 5.86626C4.46608 5.89533 4.44578 5.93528 4.44168 5.9783C4.43759 6.02131 4.44999 6.06427 4.47647 6.09876L4.9481 6.72801C4.96338 6.74923 4.98323 6.76688 5.00624 6.77971C5.02924 6.79253 5.05484 6.80022 5.08121 6.80223C5.10759 6.80423 5.13408 6.8005 5.15882 6.7913C5.18357 6.78211 5.20594 6.76767 5.22436 6.74901C5.49904 6.48096 5.82525 6.2693 6.18399 6.12638C6.54272 5.98345 6.92682 5.91211 7.31389 5.91651C8.93178 5.91651 9.7766 7.10451 9.7766 8.27901C9.7766 9.55401 8.88905 10.4525 7.61305 10.4698C6.62705 10.4698 5.88373 9.83226 5.88373 8.98926C5.88457 8.7761 5.93387 8.56581 6.02801 8.37376C6.12215 8.18172 6.25876 8.01277 6.42786 7.87926C6.46386 7.85024 6.48672 7.80839 6.49144 7.76287C6.49616 7.71734 6.48236 7.67182 6.45304 7.63626L5.95699 7.02501C5.94202 7.00622 5.92333 6.9906 5.90205 6.97909C5.88077 6.96758 5.85734 6.96041 5.83317 6.95803C5.809 6.95565 5.78459 6.9581 5.76141 6.96522C5.73823 6.97235 5.71676 6.98402 5.69828 6.99951C5.39447 7.23902 5.14887 7.54213 4.97939 7.88676C4.81051 8.23062 4.72261 8.60745 4.7222 8.98926C4.7222 10.4405 5.98523 11.5783 7.60312 11.5873H7.62602C9.54689 11.5633 10.9358 10.1743 10.9358 8.27601C10.9358 6.59076 9.66365 4.79601 7.30931 4.79601Z" fill="white"/>
</svg>
