<svg width="30" height="18" viewBox="0 0 30 18" fill="none" xmlns="http://www.w3.org/2000/svg">
  <path d="M27.4973 0H3.07622C1.81178 0 0.786743 1.00736 0.786743 2.25V15.75C0.786743 16.9926 1.81178 18 3.07622 18H27.4973C28.7617 18 29.7867 16.9926 29.7867 15.75V2.25C29.7867 1.00736 28.7617 0 27.4973 0Z" fill="black" fill-opacity="0.07"/>
  <path fill-rule="evenodd" clip-rule="evenodd" d="M27.4978 0.749512C28.3373 0.749512 29.0241 1.42451 29.0241 2.24951V15.7495C29.0241 16.5745 28.3373 17.2495 27.4978 17.2495H3.07673C2.23726 17.2495 1.55042 16.5745 1.55042 15.7495V2.24951C1.55042 1.42451 2.23726 0.749512 3.07673 0.749512H27.4978Z" fill="#3D95CE"/>
  <path d="M19.616 6.26932C19.616 8.56732 17.6646 11.5531 16.0802 13.6493H12.4629L11.0114 4.92682L14.1792 4.62532L14.9462 10.8316C15.6636 9.65707 16.5481 7.81282 16.5481 6.55507C16.5481 5.86657 16.4305 5.39782 16.2474 5.01157L19.1321 4.42432C19.4656 4.97782 19.616 5.54857 19.616 6.26932Z" fill="white"/>
</svg>