<svg width="30" height="18" viewBox="0 0 30 18" fill="none" xmlns="http://www.w3.org/2000/svg">
  <path opacity="0.07" d="M27.515 0H3.09392C1.79655 0 0.804443 0.975 0.804443 2.25V15.75C0.804443 17.025 1.87286 18 3.09392 18H27.515C28.8123 18 29.8044 17.025 29.8044 15.75V2.25C29.8044 0.975 28.736 0 27.515 0Z" fill="black"/>
  <path d="M27.5155 0.749512C28.355 0.749512 29.0418 1.42451 29.0418 2.24951V15.7495C29.0418 16.5745 28.355 17.2495 27.5155 17.2495H3.09443C2.25496 17.2495 1.56812 16.5745 1.56812 15.7495V2.24951C1.56812 1.42451 2.25496 0.749512 3.09443 0.749512H27.5155Z" fill="white"/>
  <path d="M22.4024 7.57158H22.1735C21.8682 8.32158 21.6393 8.69658 21.4103 9.82158H22.8603C22.6314 8.69658 22.6314 8.17158 22.4024 7.57158ZM24.6156 11.9966H23.3182C23.2419 11.9966 23.2419 11.9966 23.1656 11.9216L23.013 11.2466L22.9366 11.0966H21.1051C21.0287 11.0966 20.9524 11.0966 20.9524 11.2466L20.7235 11.9216C20.7235 11.9966 20.6472 11.9966 20.6472 11.9966H19.0445L19.1972 11.6216L21.4103 6.52158C21.4103 6.14658 21.6393 5.99658 22.0209 5.99658H23.1656C23.2419 5.99658 23.3182 5.99658 23.3182 6.14658L24.3866 11.0216C24.463 11.3216 24.5393 11.5466 24.5393 11.8466C24.6156 11.9216 24.6156 11.9216 24.6156 11.9966ZM14.3893 11.7716L14.6945 10.4216C14.7709 10.4216 14.8472 10.4966 14.8472 10.4966C15.3814 10.7216 15.9156 10.8716 16.4498 10.7966C16.6024 10.7966 16.8314 10.7216 16.984 10.6466C17.3656 10.4966 17.3656 10.1216 17.0603 9.82158C16.9077 9.67158 16.6787 9.59658 16.4498 9.44658C16.1445 9.29658 15.8393 9.14658 15.6103 8.92158C14.6945 8.17158 14.9998 7.12158 15.534 6.59658C15.9919 6.29658 16.2209 5.99658 16.8314 5.99658C17.7472 5.99658 18.7393 5.99658 19.1972 6.14658H19.2735C19.1972 6.59658 19.1209 6.97158 18.9682 7.42158C18.5866 7.27158 18.2051 7.12158 17.8235 7.12158C17.5945 7.12158 17.3656 7.12158 17.1366 7.19658C16.984 7.19658 16.9077 7.27158 16.8314 7.34658C16.6787 7.49658 16.6787 7.72158 16.8314 7.87158L17.213 8.17158C17.5182 8.32158 17.8235 8.47158 18.0524 8.62158C18.434 8.84658 18.8156 9.22158 18.8919 9.67158C19.0445 10.3466 18.8156 10.9466 18.2051 11.3966C17.8235 11.6966 17.6709 11.8466 17.1366 11.8466C16.0682 11.8466 15.2287 11.9216 14.5419 11.6966C14.4656 11.8466 14.4656 11.8466 14.3893 11.7716ZM11.7182 11.9966C11.7945 11.4716 11.7945 11.4716 11.8709 11.2466C12.2524 9.59658 12.634 7.87158 12.9393 6.22158C13.0156 6.07158 13.0156 5.99658 13.1682 5.99658H14.5419C14.3893 6.89658 14.2366 7.57158 14.0077 8.39658C13.7787 9.52158 13.5498 10.6466 13.2445 11.7716C13.2445 11.9216 13.1682 11.9216 13.0156 11.9216M4.62085 6.14658C4.62085 6.07158 4.77348 5.99658 4.8498 5.99658H7.44453C7.82611 5.99658 8.13138 6.22158 8.20769 6.59658L8.89453 9.89658C8.89453 9.97158 8.89453 9.97158 8.97085 10.0466C8.97085 9.97158 9.04717 9.97158 9.04717 9.97158L10.6498 6.14658C10.5735 6.07158 10.6498 5.99658 10.7261 5.99658H12.3287C12.3287 6.07158 12.3287 6.07158 12.2524 6.14658L9.88664 11.6216C9.81032 11.7716 9.81032 11.8466 9.73401 11.9216C9.65769 11.9966 9.50506 11.9216 9.35243 11.9216H8.20769C8.13138 11.9216 8.05506 11.9216 8.05506 11.7716L6.83401 7.12158C6.68138 6.97158 6.45243 6.74658 6.14717 6.67158C5.68927 6.44658 4.8498 6.29658 4.69717 6.29658L4.62085 6.14658Z" fill="#142688"/>
</svg>